<svg id="Layer_1" data-name="Layer 1" xmlns="http://www.w3.org/2000/svg" viewBox="0 0 300 300"><defs><style>.cls-1{fill:#ed2024;}</style></defs><title>hand</title><path class="cls-1" d="M240.63,105.32s-12.78-.11-35.89-.11c2.78-9.89.67-32.45-23.44-38.34S152.85,75.43,144,91.43s-21.55,28.78-25,24.67a11,11,0,0,0-8.77-2.23s-13-.44-23.78,0S75.3,124,75.3,124v16.67s-.11,61.33,0,70.89,9.77,10.78,9.77,10.78,28.56-.22,30.45-.34,4.33-2.55,4.33-2.55,6.45-.56,18.67,6.55c12.55,7,30.44,10.45,48.33,7.34,22.67-6.34,26.89-19.11,27.67-33.67a37.27,37.27,0,0,0,6.33-24.22c1.78-1.67,2.89-7.33,2.89-7.33s13.11-.34,20.45-.56c18.44-6.56,24.22-20,24.33-30.89C267.74,109.32,240.63,105.32,240.63,105.32ZM99.5,207.48a9,9,0,1,1,9-9A9,9,0,0,1,99.5,207.48ZM239.3,150s-26.67-.13-36.19,0c7.36,6.57,2.19,19.43-2.26,23.21,4,4.22,2.67,14.89-3.89,20.44.11,13.33-1.89,18.89-13.89,22.22-10.44,1.56-20.66.89-36.44-5.55-12.22-7.78-23.11-8.89-23.11-8.89V134.32c11.89-.11,24.22-16.22,31.67-26.61s8.34-18.44,15.7-24.4c17.78,2,17,10.4,16.29,17.57s-5.61,11.85-7.51,15.8a22,22,0,0,0-2.15,6.75s54.22-.22,62.44,0c7.78,2.44,10,7.11,10.23,13.11C251.3,147.65,239.3,150,239.3,150Z"/></svg>