<svg id="Layer_1" data-name="Layer 1" xmlns="http://www.w3.org/2000/svg" xmlns:xlink="http://www.w3.org/1999/xlink" viewBox="0 0 839.02 595.28"><defs><style>.cls-1{fill:none;}.cls-2{clip-path:url(#clip-path);}.cls-3{clip-path:url(#clip-path-2);}.cls-4{fill:#d1db00;}.cls-5{clip-path:url(#clip-path-3);}.cls-6{clip-path:url(#clip-path-4);}.cls-7{clip-path:url(#clip-path-5);}.cls-8{clip-path:url(#clip-path-6);}.cls-9{clip-path:url(#clip-path-7);}.cls-10{clip-path:url(#clip-path-8);}.cls-11{clip-path:url(#clip-path-9);}.cls-12{fill:#d87b00;}.cls-13{clip-path:url(#clip-path-10);}.cls-14{clip-path:url(#clip-path-11);}.cls-15{clip-path:url(#clip-path-12);}.cls-16{clip-path:url(#clip-path-13);}.cls-17{clip-path:url(#clip-path-14);}.cls-18{clip-path:url(#clip-path-15);}.cls-19{clip-path:url(#clip-path-16);}.cls-20{clip-path:url(#clip-path-17);}.cls-21{clip-path:url(#clip-path-18);}.cls-22{clip-path:url(#clip-path-19);}.cls-23{clip-path:url(#clip-path-20);}.cls-24{fill:#0e4754;}.cls-25{clip-path:url(#clip-path-21);}.cls-26{clip-path:url(#clip-path-22);}.cls-27{clip-path:url(#clip-path-23);}.cls-28{clip-path:url(#clip-path-24);}.cls-29{clip-path:url(#clip-path-25);}.cls-30{clip-path:url(#clip-path-26);}.cls-31{clip-path:url(#clip-path-27);}.cls-32{clip-path:url(#clip-path-28);}.cls-33{clip-path:url(#clip-path-29);}.cls-34{fill:#4e0b6d;}.cls-35{clip-path:url(#clip-path-30);}.cls-36{clip-path:url(#clip-path-31);}.cls-37{clip-path:url(#clip-path-32);}.cls-38{clip-path:url(#clip-path-33);}.cls-39{fill:#d5bce2;}.cls-40{clip-path:url(#clip-path-34);}.cls-41{clip-path:url(#clip-path-35);}.cls-42{clip-path:url(#clip-path-36);}.cls-43{clip-path:url(#clip-path-37);}.cls-44{clip-path:url(#clip-path-38);}.cls-45{clip-path:url(#clip-path-39);}.cls-46{clip-path:url(#clip-path-40);}.cls-47{clip-path:url(#clip-path-41);}.cls-48{clip-path:url(#clip-path-42);}.cls-49{clip-path:url(#clip-path-43);}.cls-50{clip-path:url(#clip-path-44);}.cls-51{clip-path:url(#clip-path-45);}.cls-52{clip-path:url(#clip-path-46);}.cls-53{clip-path:url(#clip-path-47);}.cls-54{clip-path:url(#clip-path-48);}.cls-55{clip-path:url(#clip-path-49);}.cls-56{clip-path:url(#clip-path-50);}.cls-57{clip-path:url(#clip-path-51);}.cls-58{clip-path:url(#clip-path-52);}.cls-59{clip-path:url(#clip-path-53);}.cls-60{clip-path:url(#clip-path-54);}.cls-61{clip-path:url(#clip-path-55);}.cls-62{clip-path:url(#clip-path-56);}.cls-63{clip-path:url(#clip-path-57);}.cls-64{clip-path:url(#clip-path-58);}.cls-65{clip-path:url(#clip-path-59);}.cls-66{clip-path:url(#clip-path-60);}.cls-67{clip-path:url(#clip-path-61);}.cls-68{clip-path:url(#clip-path-62);}.cls-69{clip-path:url(#clip-path-63);}.cls-70{clip-path:url(#clip-path-64);}.cls-71{clip-path:url(#clip-path-65);}.cls-72{clip-path:url(#clip-path-66);}.cls-73{clip-path:url(#clip-path-67);}.cls-74{clip-path:url(#clip-path-68);}</style><clipPath id="clip-path"><rect class="cls-1" x="-1" y="1.86" width="841.82" height="593.28"/></clipPath><clipPath id="clip-path-2"><polygon class="cls-1" points="206.13 205.86 39.98 282.09 202.37 373.15 206.13 205.86 39.98 282.09 202.37 373.15 206.13 205.86"/></clipPath><clipPath id="clip-path-3"><polygon class="cls-1" points="627.97 283.65 494.35 344.96 624.95 418.19 627.97 283.65 494.35 344.96 624.95 418.19 627.97 283.65"/></clipPath><clipPath id="clip-path-4"><polygon class="cls-1" points="70.64 40.51 30.63 58.87 69.73 80.79 70.64 40.51 30.63 58.87 69.73 80.79 70.64 40.51"/></clipPath><clipPath id="clip-path-5"><polygon class="cls-1" points="227.56 361.76 192.48 434.98 282.89 424.13 227.56 361.76 192.48 434.98 282.89 424.13 227.56 361.76"/></clipPath><clipPath id="clip-path-6"><polygon class="cls-1" points="180.88 -18.06 145.79 55.16 236.21 44.31 180.88 -18.06 145.79 55.16 236.21 44.31 180.88 -18.06"/></clipPath><clipPath id="clip-path-7"><polygon class="cls-1" points="476.02 435.18 440.93 508.4 531.35 497.55 476.02 435.18 440.93 508.4 531.35 497.55 476.02 435.18"/></clipPath><clipPath id="clip-path-8"><polygon class="cls-1" points="642.41 -43.02 607.33 30.2 697.74 19.35 642.41 -43.02 607.33 30.2 697.74 19.35 642.41 -43.02"/></clipPath><clipPath id="clip-path-9"><polygon class="cls-1" points="194.8 71.37 8.87 85.97 121.12 225.09 194.8 71.37 8.87 85.97 121.12 225.09 194.8 71.37"/></clipPath><clipPath id="clip-path-10"><polygon class="cls-1" points="653.52 110.47 420.05 128.8 561 303.5 653.52 110.47 420.05 128.8 561 303.5 653.52 110.47"/></clipPath><clipPath id="clip-path-11"><polygon class="cls-1" points="187.34 377.97 96.33 385.11 151.27 453.22 187.34 377.97 96.33 385.11 151.27 453.22 187.34 377.97"/></clipPath><clipPath id="clip-path-12"><polygon class="cls-1" points="268.96 441.06 213.78 445.39 247.1 486.68 268.96 441.06 213.78 445.39 247.1 486.68 268.96 441.06"/></clipPath><clipPath id="clip-path-13"><polygon class="cls-1" points="629.26 500.14 529.73 507.95 589.82 582.43 629.26 500.14 529.73 507.95 589.82 582.43 629.26 500.14"/></clipPath><clipPath id="clip-path-14"><polygon class="cls-1" points="373.76 196.41 331.97 199.69 357.2 230.95 373.76 196.41 331.97 199.69 357.2 230.95 373.76 196.41"/></clipPath><clipPath id="clip-path-15"><polygon class="cls-1" points="554.21 -24.34 499.02 -20 532.34 21.29 554.21 -24.34 499.02 -20 532.34 21.29 554.21 -24.34"/></clipPath><clipPath id="clip-path-16"><polygon class="cls-1" points="517.46 414.78 469.49 345.07 426.26 419.64 517.46 414.78 469.49 345.07 426.26 419.64 517.46 414.78"/></clipPath><clipPath id="clip-path-17"><polygon class="cls-1" points="-53.04 486.44 -27.02 375.67 -149.56 413.45 -53.04 486.44 -27.02 375.67 -149.56 413.45 -53.04 486.44"/></clipPath><clipPath id="clip-path-18"><polygon class="cls-1" points="484.72 13.03 436.76 -56.68 393.52 17.9 484.72 13.03 436.76 -56.68 393.52 17.9 484.72 13.03"/></clipPath><clipPath id="clip-path-19"><polygon class="cls-1" points="22.61 4.51 -25.36 -65.2 -68.6 9.38 22.61 4.51 -25.36 -65.2 -68.6 9.38 22.61 4.51"/></clipPath><clipPath id="clip-path-20"><polygon class="cls-1" points="255.41 46.61 159.64 190.23 351.17 190.23 255.41 46.61 159.64 190.23 351.17 190.23 255.41 46.61"/></clipPath><clipPath id="clip-path-21"><polygon class="cls-1" points="562.19 400.07 519.67 463.83 604.71 463.83 562.19 400.07 519.67 463.83 604.71 463.83 562.19 400.07"/></clipPath><clipPath id="clip-path-22"><polygon class="cls-1" points="569.22 -0.53 511.48 86.05 626.95 86.05 569.22 -0.53 511.48 86.05 626.95 86.05 569.22 -0.53"/></clipPath><clipPath id="clip-path-23"><polygon class="cls-1" points="-2.74 245.47 -77.69 357.88 72.22 357.88 -2.74 245.47 -77.69 357.88 72.22 357.88 -2.74 245.47"/></clipPath><clipPath id="clip-path-24"><polygon class="cls-1" points="260.53 322.92 211.97 324.26 252.51 365.88 260.53 322.92 211.97 324.26 252.51 365.88 260.53 322.92"/></clipPath><clipPath id="clip-path-25"><polygon class="cls-1" points="659.38 432.72 610.81 434.06 651.35 475.68 659.38 432.72 610.81 434.06 651.35 475.68 659.38 432.72"/></clipPath><clipPath id="clip-path-26"><polygon class="cls-1" points="395.58 36.65 347.02 37.99 387.56 79.61 395.58 36.65 347.02 37.99 387.56 79.61 395.58 36.65"/></clipPath><clipPath id="clip-path-27"><polygon class="cls-1" points="697.94 146.61 649.38 147.94 689.92 189.56 697.94 146.61 649.38 147.94 689.92 189.56 697.94 146.61"/></clipPath><clipPath id="clip-path-28"><polygon class="cls-1" points="92.67 435.49 80.56 512.37 162.46 481.45 92.67 435.49 80.56 512.37 162.46 481.45 92.67 435.49"/></clipPath><clipPath id="clip-path-29"><polygon class="cls-1" points="243.72 217.45 303.23 458.36 508.6 284.52 243.72 217.45 303.23 458.36 508.6 284.52 243.72 217.45"/></clipPath><clipPath id="clip-path-30"><polygon class="cls-1" points="440.63 95.72 330.45 85.58 378.5 177.92 440.63 95.72 330.45 85.58 378.5 177.92 440.63 95.72"/></clipPath><clipPath id="clip-path-31"><polygon class="cls-1" points="30.8 35.63 -79.38 25.49 -31.33 117.83 30.8 35.63 -79.38 25.49 -31.33 117.83 30.8 35.63"/></clipPath><clipPath id="clip-path-32"><polygon class="cls-1" points="422.73 -71.62 219.67 -90.31 308.23 79.88 422.73 -71.62 219.67 -90.31 308.23 79.88 422.73 -71.62"/></clipPath><clipPath id="clip-path-33"><polygon class="cls-1" points="423.22 165.66 375.95 236.56 470.5 236.56 423.22 165.66 375.95 236.56 470.5 236.56 423.22 165.66"/></clipPath><clipPath id="clip-path-34"><polygon class="cls-1" points="185.05 485.3 137.77 556.2 232.32 556.2 185.05 485.3 137.77 556.2 232.32 556.2 185.05 485.3"/></clipPath><clipPath id="clip-path-35"><polygon class="cls-1" points="15.37 432.24 -11.35 472.31 42.08 472.31 15.37 432.24 -11.35 472.31 42.08 472.31 15.37 432.24"/></clipPath><clipPath id="clip-path-36"><polygon class="cls-1" points="412.27 407.34 313.55 458.01 415.31 509.28 412.27 407.34 313.55 458.01 415.31 509.28 412.27 407.34"/></clipPath><clipPath id="clip-path-37"><polygon class="cls-1" points="748.76 472.27 632.78 531.79 752.33 592.03 748.76 472.27 632.78 531.79 752.33 592.03 748.76 472.27"/></clipPath><clipPath id="clip-path-38"><polygon class="cls-1" points="78.97 377.56 -9.49 400.65 59.78 458.34 78.97 377.56 -9.49 400.65 59.78 458.34 78.97 377.56"/></clipPath><clipPath id="clip-path-39"><polygon class="cls-1" points="664.44 39.44 619.98 51.04 654.8 80.04 664.44 39.44 619.98 51.04 654.8 80.04 664.44 39.44"/></clipPath><clipPath id="clip-path-40"><polygon class="cls-1" points="705.6 340.05 635.99 358.23 690.5 403.63 705.6 340.05 635.99 358.23 690.5 403.63 705.6 340.05"/></clipPath><clipPath id="clip-path-41"><polygon class="cls-1" points="8.2 120.04 -69.23 236.15 85.62 236.15 8.2 120.04 -69.23 236.15 85.62 236.15 8.2 120.04"/></clipPath><clipPath id="clip-path-42"><polygon class="cls-1" points="125.1 -16 43.9 9.22 111.43 60.06 125.1 -16 43.9 9.22 111.43 60.06 125.1 -16"/></clipPath><clipPath id="clip-path-43"><polygon class="cls-1" points="418.97 49.81 492.54 107.76 510.74 19.16 418.97 49.81 492.54 107.76 510.74 19.16 418.97 49.81"/></clipPath><clipPath id="clip-path-44"><polygon class="cls-1" points="673.56 198.68 659.63 332.67 798.61 273.12 673.56 198.68 659.63 332.67 798.61 273.12 673.56 198.68"/></clipPath><clipPath id="clip-path-45"><polygon class="cls-1" points="735.71 45.22 700.63 118.44 791.04 107.59 735.71 45.22 700.63 118.44 791.04 107.59 735.71 45.22"/></clipPath><clipPath id="clip-path-46"><polygon class="cls-1" points="763.99 322.15 708.8 326.48 742.12 367.77 763.99 322.15 708.8 326.48 742.12 367.77 763.99 322.15"/></clipPath><clipPath id="clip-path-47"><polygon class="cls-1" points="771.39 169.97 710.85 174.73 747.39 220.03 771.39 169.97 710.85 174.73 747.39 220.03 771.39 169.97"/></clipPath><clipPath id="clip-path-48"><polygon class="cls-1" points="101.35 535.65 19.92 500.71 28.46 583.4 101.35 535.65 19.92 500.71 28.46 583.4 101.35 535.65"/></clipPath><clipPath id="clip-path-49"><polygon class="cls-1" points="788.55 486.44 814.57 375.67 692.03 413.45 788.55 486.44 814.57 375.67 692.03 413.45 788.55 486.44"/></clipPath><clipPath id="clip-path-50"><polygon class="cls-1" points="864.19 4.51 816.23 -65.2 772.99 9.38 864.19 4.51 816.23 -65.2 772.99 9.38 864.19 4.51"/></clipPath><clipPath id="clip-path-51"><polygon class="cls-1" points="838.85 245.47 763.9 357.88 913.8 357.88 838.85 245.47 763.9 357.88 913.8 357.88 838.85 245.47"/></clipPath><clipPath id="clip-path-52"><polygon class="cls-1" points="802.06 128.15 753.5 129.49 794.04 171.1 802.06 128.15 753.5 129.49 794.04 171.1 802.06 128.15"/></clipPath><clipPath id="clip-path-53"><polygon class="cls-1" points="872.39 35.63 762.2 25.49 810.26 117.83 872.39 35.63 762.2 25.49 810.26 117.83 872.39 35.63"/></clipPath><clipPath id="clip-path-54"><polygon class="cls-1" points="856.95 432.24 830.24 472.31 883.67 472.31 856.95 432.24 830.24 472.31 883.67 472.31 856.95 432.24"/></clipPath><clipPath id="clip-path-55"><polygon class="cls-1" points="920.56 377.56 832.09 400.65 901.37 458.34 920.56 377.56 832.09 400.65 901.37 458.34 920.56 377.56"/></clipPath><clipPath id="clip-path-56"><polygon class="cls-1" points="849.78 120.04 772.36 236.15 927.21 236.15 849.78 120.04 772.36 236.15 927.21 236.15 849.78 120.04"/></clipPath><clipPath id="clip-path-57"><polygon class="cls-1" points="180.88 576.04 145.79 649.26 236.21 638.41 180.88 576.04 145.79 649.26 236.21 638.41 180.88 576.04"/></clipPath><clipPath id="clip-path-58"><polygon class="cls-1" points="642.41 551.08 607.33 624.3 697.74 613.45 642.41 551.08 607.33 624.3 697.74 613.45 642.41 551.08"/></clipPath><clipPath id="clip-path-59"><polygon class="cls-1" points="554.21 569.76 499.02 574.1 532.34 615.39 554.21 569.76 499.02 574.1 532.34 615.39 554.21 569.76"/></clipPath><clipPath id="clip-path-60"><polygon class="cls-1" points="484.72 607.13 436.76 537.42 393.52 612 484.72 607.13 436.76 537.42 393.52 612 484.72 607.13"/></clipPath><clipPath id="clip-path-61"><polygon class="cls-1" points="22.61 598.61 -25.36 528.9 -68.6 603.48 22.61 598.61 -25.36 528.9 -68.6 603.48 22.61 598.61"/></clipPath><clipPath id="clip-path-62"><polygon class="cls-1" points="569.22 593.57 511.48 680.15 626.95 680.15 569.22 593.57 511.48 680.15 626.95 680.15 569.22 593.57"/></clipPath><clipPath id="clip-path-63"><polygon class="cls-1" points="30.8 629.73 -79.38 619.59 -31.33 711.93 30.8 629.73 -79.38 619.59 -31.33 711.93 30.8 629.73"/></clipPath><clipPath id="clip-path-64"><polygon class="cls-1" points="422.73 522.48 219.67 503.79 308.23 673.98 422.73 522.48 219.67 503.79 308.23 673.98 422.73 522.48"/></clipPath><clipPath id="clip-path-65"><polygon class="cls-1" points="125.1 578.1 43.9 603.32 111.43 654.16 125.1 578.1 43.9 603.32 111.43 654.16 125.1 578.1"/></clipPath><clipPath id="clip-path-66"><polygon class="cls-1" points="418.97 643.91 492.54 701.86 510.74 613.26 418.97 643.91 492.54 701.86 510.74 613.26 418.97 643.91"/></clipPath><clipPath id="clip-path-67"><polygon class="cls-1" points="864.19 598.61 816.23 528.9 772.99 603.48 864.19 598.61 816.23 528.9 772.99 603.48 864.19 598.61"/></clipPath><clipPath id="clip-path-68"><polygon class="cls-1" points="872.39 629.73 762.2 619.59 810.26 711.93 872.39 629.73 762.2 619.59 810.26 711.93 872.39 629.73"/></clipPath></defs><title>pattern</title><g class="cls-2"><rect x="-91.17" width="939.11" height="595.28"/><g class="cls-3"><polygon class="cls-4" points="326.52 265.32 99.99 138.3 104.03 132.52 330.55 259.54 326.52 265.32"/><polygon class="cls-4" points="317.78 277.85 91.25 150.83 95.28 145.05 321.81 272.07 317.78 277.85"/><polygon class="cls-4" points="309.04 290.37 82.51 163.35 86.55 157.57 313.07 284.59 309.04 290.37"/><polygon class="cls-4" points="300.3 302.9 73.77 175.88 77.81 170.1 304.33 297.12 300.3 302.9"/><polygon class="cls-4" points="291.56 315.43 65.03 188.41 69.07 182.63 295.59 309.65 291.56 315.43"/><polygon class="cls-4" points="282.82 327.95 56.29 200.93 60.33 195.15 286.85 322.17 282.82 327.95"/><polygon class="cls-4" points="274.08 340.48 47.55 213.46 51.59 207.68 278.11 334.7 274.08 340.48"/><polygon class="cls-4" points="265.34 353.01 38.81 225.99 42.85 220.21 269.37 347.22 265.34 353.01"/><polygon class="cls-4" points="256.6 365.53 30.07 238.51 34.11 232.73 260.63 359.75 256.6 365.53"/><polygon class="cls-4" points="247.86 378.06 21.33 251.04 25.37 245.26 251.89 372.28 247.86 378.06"/><polygon class="cls-4" points="239.12 390.58 12.59 263.56 16.63 257.78 243.15 384.8 239.12 390.58"/><polygon class="cls-4" points="230.38 403.11 3.85 276.09 7.89 270.31 234.41 397.33 230.38 403.11"/></g><g class="cls-5"><polygon class="cls-4" points="724.8 331.47 542.61 229.32 545.85 224.67 728.04 326.82 724.8 331.47"/><polygon class="cls-4" points="717.77 341.55 535.58 239.39 538.82 234.74 721.01 336.9 717.77 341.55"/><polygon class="cls-4" points="710.74 351.62 528.55 249.47 531.79 244.81 713.98 346.97 710.74 351.62"/><polygon class="cls-4" points="703.71 361.7 521.52 259.54 524.76 254.89 706.95 357.05 703.71 361.7"/><polygon class="cls-4" points="696.68 371.77 514.49 269.61 517.74 264.96 699.92 367.12 696.68 371.77"/><polygon class="cls-4" points="689.65 381.85 507.46 279.69 510.71 275.04 692.89 377.2 689.65 381.85"/><polygon class="cls-4" points="682.62 391.92 500.43 289.76 503.68 285.11 685.86 387.27 682.62 391.92"/><polygon class="cls-4" points="675.59 402 493.4 299.84 496.65 295.19 678.84 397.35 675.59 402"/><polygon class="cls-4" points="668.56 412.07 486.37 309.91 489.62 305.26 671.81 407.42 668.56 412.07"/><polygon class="cls-4" points="661.53 422.14 479.35 319.99 482.59 315.34 664.78 417.49 661.53 422.14"/><polygon class="cls-4" points="654.5 432.22 472.31 330.06 475.56 325.41 657.75 427.57 654.5 432.22"/><polygon class="cls-4" points="647.48 442.29 465.29 340.13 468.53 335.49 650.72 437.64 647.48 442.29"/></g><g class="cls-6"><polygon class="cls-4" points="99.62 54.83 45.08 24.25 46.05 22.85 100.59 53.44 99.62 54.83"/><polygon class="cls-4" points="97.52 57.84 42.98 27.26 43.95 25.87 98.49 56.45 97.52 57.84"/><polygon class="cls-4" points="95.41 60.86 40.87 30.28 41.84 28.88 96.38 59.47 95.41 60.86"/><polygon class="cls-4" points="93.31 63.88 38.77 33.29 39.74 31.9 94.28 62.48 93.31 63.88"/><polygon class="cls-4" points="91.2 66.89 36.66 36.31 37.63 34.92 92.17 65.5 91.2 66.89"/><polygon class="cls-4" points="89.1 69.91 34.56 39.32 35.53 37.93 90.07 68.52 89.1 69.91"/><polygon class="cls-4" points="87 72.92 32.45 42.34 33.43 40.95 87.97 71.53 87 72.92"/><polygon class="cls-4" points="84.89 75.94 30.35 45.36 31.32 43.96 85.86 74.55 84.89 75.94"/><polygon class="cls-4" points="82.79 78.95 28.25 48.37 29.22 46.98 83.76 77.56 82.79 78.95"/><polygon class="cls-4" points="80.68 81.97 26.14 51.39 27.11 50 81.65 80.58 80.68 81.97"/><polygon class="cls-4" points="78.58 84.99 24.04 54.4 25.01 53.01 79.55 83.59 78.58 84.99"/><polygon class="cls-4" points="76.47 88 21.93 57.42 22.9 56.03 77.44 86.61 76.47 88"/></g><g class="cls-7"><polygon class="cls-4" points="291.87 350.76 165.74 365.9 165.25 362.68 291.39 347.54 291.87 350.76"/><polygon class="cls-4" points="292.91 357.74 166.78 372.87 166.3 369.65 292.43 354.52 292.91 357.74"/><polygon class="cls-4" points="293.95 364.71 167.82 379.85 167.34 376.63 293.47 361.49 293.95 364.71"/><polygon class="cls-4" points="294.99 371.69 168.86 386.82 168.38 383.6 294.51 368.47 294.99 371.69"/><polygon class="cls-4" points="296.03 378.66 169.9 393.8 169.42 390.58 295.55 375.44 296.03 378.66"/><polygon class="cls-4" points="297.08 385.64 170.94 400.77 170.46 397.55 296.6 382.42 297.08 385.64"/><polygon class="cls-4" points="298.12 392.61 171.98 407.75 171.5 404.53 297.64 389.39 298.12 392.61"/><polygon class="cls-4" points="299.16 399.59 173.03 414.72 172.54 411.5 298.68 396.37 299.16 399.59"/><polygon class="cls-4" points="300.2 406.56 174.07 421.7 173.59 418.48 299.72 403.34 300.2 406.56"/><polygon class="cls-4" points="301.24 413.54 175.11 428.67 174.63 425.45 300.76 410.32 301.24 413.54"/><polygon class="cls-4" points="302.28 420.51 176.15 435.65 175.67 432.43 301.8 417.29 302.28 420.51"/><polygon class="cls-4" points="303.32 427.49 177.19 442.62 176.71 439.4 302.84 424.27 303.32 427.49"/></g><g class="cls-8"><polygon class="cls-4" points="247.27 -15.1 121.14 0.03 120.66 -3.19 246.79 -18.32 247.27 -15.1"/><polygon class="cls-4" points="248.31 -8.13 122.18 7.01 121.7 3.79 247.83 -11.35 248.31 -8.13"/><polygon class="cls-4" points="249.35 -1.15 123.22 13.98 122.74 10.76 248.87 -4.37 249.35 -1.15"/><polygon class="cls-4" points="250.4 5.82 124.26 20.96 123.78 17.74 249.91 2.6 250.4 5.82"/><polygon class="cls-4" points="251.44 12.8 125.3 27.93 124.82 24.71 250.96 9.58 251.44 12.8"/><polygon class="cls-4" points="252.48 19.77 126.34 34.91 125.86 31.69 252 16.55 252.48 19.77"/><polygon class="cls-4" points="253.52 26.75 127.39 41.88 126.91 38.66 253.04 23.53 253.52 26.75"/><polygon class="cls-4" points="254.56 33.72 128.43 48.85 127.95 45.63 254.08 30.5 254.56 33.72"/><polygon class="cls-4" points="255.6 40.7 129.47 55.83 128.99 52.61 255.12 37.48 255.6 40.7"/><polygon class="cls-4" points="256.64 47.67 130.51 62.8 130.03 59.59 256.16 44.45 256.64 47.67"/></g><g class="cls-9"><polygon class="cls-4" points="540.32 424.19 414.19 439.32 413.71 436.1 539.84 420.97 540.32 424.19"/><polygon class="cls-4" points="541.36 431.16 415.23 446.3 414.75 443.08 540.88 427.94 541.36 431.16"/><polygon class="cls-4" points="542.4 438.14 416.27 453.27 415.79 450.05 541.92 434.92 542.4 438.14"/><polygon class="cls-4" points="543.44 445.11 417.31 460.25 416.83 457.02 542.97 441.89 543.44 445.11"/><polygon class="cls-4" points="544.49 452.08 418.35 467.22 417.87 464 544.01 448.87 544.49 452.08"/><polygon class="cls-4" points="545.53 459.06 419.4 474.19 418.92 470.98 545.05 455.84 545.53 459.06"/><polygon class="cls-4" points="546.57 466.04 420.44 481.17 419.96 477.95 546.09 462.82 546.57 466.04"/><polygon class="cls-4" points="547.61 473.01 421.48 488.14 421 484.93 547.13 469.79 547.61 473.01"/><polygon class="cls-4" points="548.65 479.98 422.52 495.12 422.04 491.9 548.17 476.77 548.65 479.98"/><polygon class="cls-4" points="549.69 486.96 423.56 502.09 423.08 498.87 549.21 483.74 549.69 486.96"/><polygon class="cls-4" points="550.73 493.94 424.6 509.07 424.12 505.85 550.26 490.71 550.73 493.94"/><polygon class="cls-4" points="551.77 500.91 425.64 516.04 425.16 512.82 551.29 497.69 551.77 500.91"/></g><g class="cls-10"><polygon class="cls-4" points="712.97 -12.17 586.84 2.97 586.36 -0.25 712.49 -15.39 712.97 -12.17"/><polygon class="cls-4" points="714.01 -5.19 587.88 9.94 587.4 6.72 713.53 -8.41 714.01 -5.19"/><polygon class="cls-4" points="715.05 1.78 588.92 16.92 588.44 13.7 714.57 -1.44 715.05 1.78"/><polygon class="cls-4" points="716.09 8.76 589.96 23.89 589.48 20.67 715.61 5.54 716.09 8.76"/><polygon class="cls-4" points="717.13 15.73 591 30.87 590.52 27.65 716.65 12.51 717.13 15.73"/><polygon class="cls-4" points="718.17 22.71 592.04 37.84 591.56 34.62 717.69 19.49 718.17 22.71"/></g><g class="cls-11"><polygon class="cls-12" points="281.4 167.06 124.81 -27.02 130.98 -31.02 287.56 163.06 281.4 167.06"/><polygon class="cls-12" points="268.04 175.72 111.46 -18.37 117.62 -22.36 274.2 171.72 268.04 175.72"/><polygon class="cls-12" points="254.69 184.38 98.11 -9.71 104.27 -13.7 260.85 180.38 254.69 184.38"/><polygon class="cls-12" points="241.33 193.04 84.75 -1.05 90.91 -5.04 247.5 189.04 241.33 193.04"/><polygon class="cls-12" points="227.98 201.69 71.4 7.61 77.56 3.61 234.14 197.7 227.98 201.69"/><polygon class="cls-12" points="214.62 210.35 58.04 16.27 64.2 12.27 220.79 206.36 214.62 210.35"/><polygon class="cls-12" points="201.27 219.01 44.69 24.93 50.85 20.93 207.43 215.02 201.27 219.01"/><polygon class="cls-12" points="187.91 227.67 31.33 33.59 37.5 29.59 194.08 223.68 187.91 227.67"/><polygon class="cls-12" points="174.56 236.33 17.98 42.24 24.14 38.25 180.72 232.33 174.56 236.33"/><polygon class="cls-12" points="161.21 244.99 4.62 50.9 10.79 46.91 167.37 240.99 161.21 244.99"/><polygon class="cls-12" points="147.85 253.65 -8.73 59.56 -2.57 55.56 154.01 249.65 147.85 253.65"/><polygon class="cls-12" points="134.5 262.31 -22.09 68.22 -15.92 64.22 140.66 258.31 134.5 262.31"/></g><g class="cls-13"><polygon class="cls-12" points="762.25 230.63 565.64 -13.08 573.38 -18.09 769.99 225.61 762.25 230.63"/><polygon class="cls-12" points="745.48 241.5 548.87 -2.21 556.61 -7.22 753.23 236.49 745.48 241.5"/><polygon class="cls-12" points="728.72 252.38 532.1 8.67 539.84 3.65 736.46 247.36 728.72 252.38"/><polygon class="cls-12" points="711.95 263.25 515.33 19.54 523.07 14.52 719.68 258.23 711.95 263.25"/><polygon class="cls-12" points="695.18 274.12 498.56 30.41 506.3 25.39 702.92 269.1 695.18 274.12"/><polygon class="cls-12" points="678.41 285 481.79 41.28 489.53 36.27 686.15 279.98 678.41 285"/><polygon class="cls-12" points="661.64 295.87 465.02 52.16 472.76 47.14 669.38 290.85 661.64 295.87"/><polygon class="cls-12" points="644.87 306.74 448.25 63.03 455.99 58.01 652.61 301.72 644.87 306.74"/><polygon class="cls-12" points="628.1 317.61 431.48 73.9 439.22 68.88 635.84 312.59 628.1 317.61"/><polygon class="cls-12" points="611.33 328.48 414.72 84.77 422.46 79.76 619.07 323.46 611.33 328.48"/><polygon class="cls-12" points="594.56 339.36 397.95 95.65 405.69 90.63 602.3 334.34 594.56 339.36"/><polygon class="cls-12" points="577.8 350.23 381.18 106.52 388.92 101.5 585.54 345.21 577.8 350.23"/></g><g class="cls-14"><polygon class="cls-12" points="229.73 424.81 153.08 329.8 156.1 327.85 232.75 422.85 229.73 424.81"/><polygon class="cls-12" points="223.19 429.05 146.55 334.04 149.56 332.08 226.21 427.09 223.19 429.05"/><polygon class="cls-12" points="216.66 433.29 140.01 338.28 143.03 336.32 219.67 431.33 216.66 433.29"/><polygon class="cls-12" points="210.12 437.52 133.47 342.52 136.49 340.56 213.14 435.57 210.12 437.52"/><polygon class="cls-12" points="203.58 441.76 126.93 346.76 129.95 344.8 206.6 439.81 203.58 441.76"/><polygon class="cls-12" points="197.04 446 120.4 351 123.41 349.04 200.06 444.05 197.04 446"/><polygon class="cls-12" points="190.51 450.24 113.86 355.23 116.88 353.28 193.52 448.28 190.51 450.24"/><polygon class="cls-12" points="183.97 454.48 107.32 359.47 110.34 357.52 186.99 452.52 183.97 454.48"/><polygon class="cls-12" points="177.43 458.72 100.79 363.71 103.8 361.75 180.45 456.76 177.43 458.72"/><polygon class="cls-12" points="170.9 462.95 94.25 367.95 97.27 365.99 173.91 461 170.9 462.95"/><polygon class="cls-12" points="164.36 467.19 87.71 372.19 90.73 370.23 167.38 465.24 164.36 467.19"/><polygon class="cls-12" points="157.82 471.43 81.17 376.43 84.19 374.47 160.84 469.48 157.82 471.43"/></g><g class="cls-15"><polygon class="cls-12" points="294.66 469.46 248.19 411.85 250.02 410.67 296.49 468.27 294.66 469.46"/><polygon class="cls-12" points="290.7 472.02 244.23 414.42 246.06 413.24 292.53 470.84 290.7 472.02"/><polygon class="cls-12" points="286.74 474.6 240.27 416.99 242.09 415.81 288.56 473.41 286.74 474.6"/><polygon class="cls-12" points="282.77 477.17 236.3 419.56 238.13 418.38 284.6 475.98 282.77 477.17"/><polygon class="cls-12" points="278.81 479.73 232.34 422.13 234.17 420.95 280.64 478.55 278.81 479.73"/><polygon class="cls-12" points="274.85 482.31 228.38 424.7 230.21 423.52 276.68 481.12 274.85 482.31"/><polygon class="cls-12" points="270.88 484.87 224.41 427.27 226.24 426.09 272.71 483.69 270.88 484.87"/><polygon class="cls-12" points="266.92 487.44 220.45 429.84 222.28 428.65 268.75 486.26 266.92 487.44"/><polygon class="cls-12" points="262.96 490.01 216.49 432.41 218.31 431.23 264.79 488.83 262.96 490.01"/><polygon class="cls-12" points="258.99 492.58 212.52 434.98 214.35 433.8 260.82 491.4 258.99 492.58"/><polygon class="cls-12" points="255.03 495.15 208.56 437.55 210.39 436.37 256.86 493.97 255.03 495.15"/><polygon class="cls-12" points="251.07 497.72 204.59 440.12 206.43 438.94 252.9 496.54 251.07 497.72"/></g><g class="cls-16"><polygon class="cls-12" points="675.62 551.36 591.8 447.47 595.1 445.32 678.92 549.23 675.62 551.36"/><polygon class="cls-12" points="668.47 556 584.65 452.1 587.95 449.96 671.77 553.86 668.47 556"/><polygon class="cls-12" points="661.32 560.63 577.5 456.74 580.8 454.6 664.62 558.5 661.32 560.63"/><polygon class="cls-12" points="654.17 565.27 570.35 461.37 573.65 459.23 657.47 563.13 654.17 565.27"/><polygon class="cls-12" points="647.02 569.9 563.2 466.01 566.5 463.87 650.32 567.76 647.02 569.9"/><polygon class="cls-12" points="639.88 574.54 556.05 470.64 559.35 468.5 643.17 572.4 639.88 574.54"/><polygon class="cls-12" points="632.73 579.17 548.9 475.28 552.2 473.14 636.02 577.03 632.73 579.17"/><polygon class="cls-12" points="625.58 583.81 541.76 479.91 545.05 477.77 628.88 581.67 625.58 583.81"/><polygon class="cls-12" points="618.43 588.44 534.61 484.55 537.9 482.41 621.73 586.31 618.43 588.44"/><polygon class="cls-12" points="611.28 593.08 527.46 489.18 530.76 487.04 614.58 590.94 611.28 593.08"/><polygon class="cls-12" points="604.13 597.72 520.31 493.82 523.61 491.68 607.43 595.58 604.13 597.72"/><polygon class="cls-12" points="596.98 602.35 513.16 498.45 516.46 496.31 600.28 600.21 596.98 602.35"/></g><g class="cls-17"><polygon class="cls-12" points="393.22 217.91 358.03 174.29 359.41 173.39 394.6 217.01 393.22 217.91"/><polygon class="cls-12" points="390.22 219.86 355.03 176.24 356.41 175.34 391.6 218.96 390.22 219.86"/><polygon class="cls-12" points="387.21 221.8 352.02 178.18 353.41 177.29 388.6 220.9 387.21 221.8"/><polygon class="cls-12" points="384.21 223.75 349.02 180.13 350.41 179.23 385.6 222.85 384.21 223.75"/><polygon class="cls-12" points="381.21 225.69 346.02 182.08 347.41 181.18 382.6 224.8 381.21 225.69"/><polygon class="cls-12" points="378.21 227.64 343.02 184.02 344.41 183.12 379.6 226.74 378.21 227.64"/><polygon class="cls-12" points="375.21 229.59 340.02 185.97 341.4 185.07 376.59 228.69 375.21 229.59"/><polygon class="cls-12" points="372.21 231.53 337.02 187.91 338.4 187.01 373.59 230.63 372.21 231.53"/><polygon class="cls-12" points="369.21 233.48 334.02 189.86 335.4 188.96 370.59 232.58 369.21 233.48"/><polygon class="cls-12" points="366.21 235.42 331.02 191.81 332.4 190.91 367.59 234.53 366.21 235.42"/><polygon class="cls-12" points="363.2 237.37 328.01 193.75 329.4 192.85 364.59 236.47 363.2 237.37"/><polygon class="cls-12" points="360.2 239.32 325.01 195.7 326.4 194.8 361.59 238.42 360.2 239.32"/></g><g class="cls-18"><polygon class="cls-12" points="579.9 4.06 533.43 -53.54 535.26 -54.73 581.73 2.88 579.9 4.06"/><polygon class="cls-12" points="575.94 6.63 529.47 -50.97 531.3 -52.16 577.77 5.45 575.94 6.63"/><polygon class="cls-12" points="571.98 9.2 525.51 -48.4 527.34 -49.59 573.81 8.02 571.98 9.2"/><polygon class="cls-12" points="568.01 11.77 521.54 -45.83 523.37 -47.02 569.84 10.59 568.01 11.77"/><polygon class="cls-12" points="564.05 14.34 517.58 -43.26 519.41 -44.45 565.88 13.15 564.05 14.34"/><polygon class="cls-12" points="560.09 16.91 513.62 -40.69 515.45 -41.88 561.92 15.72 560.09 16.91"/><polygon class="cls-12" points="556.13 19.48 509.65 -38.12 511.48 -39.31 557.95 18.29 556.13 19.48"/><polygon class="cls-12" points="552.16 22.05 505.69 -35.55 507.52 -36.74 553.99 20.86 552.16 22.05"/><polygon class="cls-12" points="548.2 24.62 501.73 -32.98 503.56 -34.17 550.03 23.43 548.2 24.62"/><polygon class="cls-12" points="544.23 27.19 497.76 -30.41 499.59 -31.6 546.06 26 544.23 27.19"/><polygon class="cls-12" points="540.27 29.76 493.8 -27.84 495.63 -29.03 542.1 28.57 540.27 29.76"/><polygon class="cls-12" points="536.31 32.33 489.84 -25.27 491.67 -26.46 538.14 31.14 536.31 32.33"/></g><g class="cls-19"><polygon class="cls-12" points="489.78 469.75 550.1 365.72 553.4 367.26 493.08 471.3 489.78 469.75"/><polygon class="cls-12" points="482.62 466.42 542.94 362.38 546.24 363.92 485.92 467.96 482.62 466.42"/><polygon class="cls-12" points="475.46 463.08 535.78 359.05 539.08 360.59 478.76 464.62 475.46 463.08"/><polygon class="cls-12" points="468.3 459.75 528.62 355.71 531.93 357.25 471.61 461.29 468.3 459.75"/><polygon class="cls-12" points="461.14 456.41 521.46 352.38 524.77 353.92 464.45 457.95 461.14 456.41"/><polygon class="cls-12" points="453.98 453.08 514.31 349.04 517.61 350.58 457.29 454.62 453.98 453.08"/><polygon class="cls-12" points="446.83 449.74 507.15 345.7 510.45 347.24 450.13 451.28 446.83 449.74"/><polygon class="cls-12" points="439.67 446.4 499.99 342.37 503.29 343.91 442.97 447.94 439.67 446.4"/><polygon class="cls-12" points="432.51 443.07 492.83 339.03 496.13 340.57 435.81 444.61 432.51 443.07"/><polygon class="cls-12" points="425.35 439.73 485.67 335.7 488.98 337.24 428.65 441.27 425.35 439.73"/><polygon class="cls-12" points="418.19 436.4 478.51 332.36 481.82 333.9 421.5 437.94 418.19 436.4"/><polygon class="cls-12" points="411.04 433.06 471.36 329.03 474.66 330.57 414.34 434.6 411.04 433.06"/></g><g class="cls-20"><polygon class="cls-12" points="-139.17 517.88 31.78 465.17 33.45 469.54 -137.5 522.24 -139.17 517.88"/><polygon class="cls-12" points="-142.8 508.43 28.16 455.72 29.83 460.08 -141.12 512.79 -142.8 508.43"/><polygon class="cls-12" points="-146.42 498.97 24.53 446.27 26.2 450.63 -144.75 503.33 -146.42 498.97"/><polygon class="cls-12" points="-150.05 489.52 20.9 436.81 22.57 441.18 -148.38 493.88 -150.05 489.52"/><polygon class="cls-12" points="-153.68 480.06 17.27 427.36 18.95 431.72 -152 484.43 -153.68 480.06"/><polygon class="cls-12" points="-157.3 470.61 13.65 417.91 15.32 422.27 -155.63 474.97 -157.3 470.61"/><polygon class="cls-12" points="-160.93 461.16 10.02 408.45 11.7 412.82 -159.25 465.52 -160.93 461.16"/><polygon class="cls-12" points="-164.56 451.71 6.4 399 8.07 403.36 -162.88 456.07 -164.56 451.71"/><polygon class="cls-12" points="-168.18 442.25 2.77 389.55 4.44 393.91 -166.51 446.62 -168.18 442.25"/><polygon class="cls-12" points="-171.81 432.8 -0.86 380.1 0.82 384.46 -170.13 437.16 -171.81 432.8"/></g><g class="cls-21"><polygon class="cls-12" points="457.04 68.01 517.36 -36.03 520.66 -34.49 460.35 69.55 457.04 68.01"/><polygon class="cls-12" points="449.88 64.67 510.2 -39.36 513.51 -37.82 453.19 66.21 449.88 64.67"/><polygon class="cls-12" points="442.72 61.34 503.04 -42.7 506.35 -41.16 446.03 62.88 442.72 61.34"/><polygon class="cls-12" points="435.56 58 495.88 -46.03 499.19 -44.49 438.87 59.54 435.56 58"/><polygon class="cls-12" points="428.41 54.67 488.73 -49.37 492.03 -47.83 431.71 56.21 428.41 54.67"/><polygon class="cls-12" points="421.25 51.33 481.57 -52.7 484.87 -51.17 424.55 52.87 421.25 51.33"/><polygon class="cls-12" points="414.09 48 474.41 -56.04 477.71 -54.5 417.39 49.53 414.09 48"/><polygon class="cls-12" points="406.93 44.66 467.25 -59.38 470.56 -57.84 410.24 46.2 406.93 44.66"/><polygon class="cls-12" points="399.77 41.33 460.09 -62.71 463.39 -61.17 403.08 42.86 399.77 41.33"/><polygon class="cls-12" points="392.62 37.99 452.93 -66.05 456.24 -64.51 395.92 39.53 392.62 37.99"/><polygon class="cls-12" points="385.46 34.65 445.77 -69.38 449.08 -67.84 388.76 36.19 385.46 34.65"/><polygon class="cls-12" points="378.3 31.32 438.62 -72.72 441.92 -71.18 381.6 32.86 378.3 31.32"/></g><g class="cls-22"><polygon class="cls-12" points="-5.07 59.48 55.25 -44.55 58.55 -43.01 -1.77 61.02 -5.07 59.48"/><polygon class="cls-12" points="-12.23 56.15 48.09 -47.89 51.39 -46.35 -8.93 57.69 -12.23 56.15"/><polygon class="cls-12" points="-19.39 52.81 40.93 -51.22 44.23 -49.68 -16.09 54.35 -19.39 52.81"/><polygon class="cls-12" points="-26.55 49.48 33.77 -54.56 37.08 -53.02 -23.25 51.02 -26.55 49.48"/><polygon class="cls-12" points="-33.71 46.14 26.61 -57.89 29.92 -56.35 -30.4 47.68 -33.71 46.14"/><polygon class="cls-12" points="-40.87 42.81 19.45 -61.23 22.76 -59.69 -37.56 44.35 -40.87 42.81"/><polygon class="cls-12" points="-48.02 39.47 12.3 -64.56 15.6 -63.02 -44.72 41.01 -48.02 39.47"/><polygon class="cls-12" points="-55.18 36.14 5.14 -67.9 8.44 -66.36 -51.88 37.68 -55.18 36.14"/><polygon class="cls-12" points="-62.34 32.8 -2.02 -71.23 1.28 -69.7 -59.04 34.34 -62.34 32.8"/></g><g class="cls-23"><rect class="cls-24" x="125.46" y="32.97" width="267.19" height="6.82"/><rect class="cls-24" x="125.46" y="47.75" width="267.19" height="6.82"/><rect class="cls-24" x="125.46" y="62.52" width="267.19" height="6.82"/><rect class="cls-24" x="125.46" y="77.3" width="267.19" height="6.82"/><rect class="cls-24" x="125.46" y="92.07" width="267.19" height="6.82"/><rect class="cls-24" x="125.46" y="106.85" width="267.19" height="6.82"/><rect class="cls-24" x="125.46" y="121.62" width="267.19" height="6.82"/><rect class="cls-24" x="125.46" y="136.4" width="267.19" height="6.82"/><rect class="cls-24" x="125.46" y="151.17" width="267.19" height="6.82"/><rect class="cls-24" x="125.46" y="165.95" width="267.19" height="6.82"/><rect class="cls-24" x="125.46" y="180.72" width="267.19" height="6.82"/><rect class="cls-24" x="125.46" y="195.5" width="267.19" height="6.82"/></g><g class="cls-25"><rect class="cls-24" x="504.49" y="394.01" width="118.63" height="3.03"/><rect class="cls-24" x="504.49" y="400.57" width="118.63" height="3.03"/><rect class="cls-24" x="504.49" y="407.13" width="118.63" height="3.03"/><rect class="cls-24" x="504.49" y="413.69" width="118.63" height="3.03"/><rect class="cls-24" x="504.49" y="420.25" width="118.63" height="3.03"/><rect class="cls-24" x="504.49" y="426.81" width="118.63" height="3.03"/><rect class="cls-24" x="504.49" y="433.37" width="118.63" height="3.03"/><rect class="cls-24" x="504.49" y="439.93" width="118.63" height="3.03"/><rect class="cls-24" x="504.49" y="446.49" width="118.63" height="3.03"/><rect class="cls-24" x="504.49" y="453.05" width="118.63" height="3.03"/><rect class="cls-24" x="504.49" y="459.61" width="118.63" height="3.03"/><rect class="cls-24" x="504.49" y="466.17" width="118.63" height="3.03"/></g><g class="cls-26"><rect class="cls-24" x="490.88" y="0.15" width="161.07" height="4.11"/><rect class="cls-24" x="490.88" y="9.06" width="161.07" height="4.11"/><rect class="cls-24" x="490.88" y="17.97" width="161.07" height="4.11"/><rect class="cls-24" x="490.88" y="26.87" width="161.07" height="4.11"/><rect class="cls-24" x="490.88" y="35.78" width="161.07" height="4.11"/><rect class="cls-24" x="490.88" y="44.69" width="161.07" height="4.11"/><rect class="cls-24" x="490.88" y="53.59" width="161.07" height="4.11"/><rect class="cls-24" x="490.88" y="62.5" width="161.07" height="4.11"/><rect class="cls-24" x="490.88" y="71.41" width="161.07" height="4.11"/><rect class="cls-24" x="490.88" y="80.32" width="161.07" height="4.11"/><rect class="cls-24" x="490.88" y="89.22" width="161.07" height="4.11"/></g><g class="cls-27"><rect class="cls-24" x="-104.44" y="234.8" width="209.12" height="5.34"/><rect class="cls-24" x="-104.44" y="246.36" width="209.12" height="5.34"/><rect class="cls-24" x="-104.44" y="257.93" width="209.12" height="5.34"/><rect class="cls-24" x="-104.44" y="269.49" width="209.12" height="5.34"/><rect class="cls-24" x="-104.44" y="281.06" width="209.12" height="5.34"/><rect class="cls-24" x="-104.44" y="292.62" width="209.12" height="5.34"/><rect class="cls-24" x="-104.44" y="304.18" width="209.12" height="5.34"/><rect class="cls-24" x="-104.44" y="315.75" width="209.12" height="5.34"/><rect class="cls-24" x="-104.44" y="327.31" width="209.12" height="5.34"/><rect class="cls-24" x="-104.44" y="338.88" width="209.12" height="5.34"/><rect class="cls-24" x="-104.44" y="350.44" width="209.12" height="5.34"/><rect class="cls-24" x="-104.44" y="362" width="209.12" height="5.34"/></g><g class="cls-28"><polygon class="cls-24" points="290.92 351.69 234.37 293.63 235.71 292.58 292.27 350.64 290.92 351.69"/><polygon class="cls-24" points="288.01 353.97 231.46 295.91 232.8 294.86 289.36 352.92 288.01 353.97"/><polygon class="cls-24" points="285.1 356.25 228.55 298.19 229.89 297.14 286.44 355.2 285.1 356.25"/><polygon class="cls-24" points="282.19 358.53 225.64 300.47 226.98 299.42 283.53 357.48 282.19 358.53"/><polygon class="cls-24" points="279.28 360.81 222.73 302.75 224.07 301.69 280.63 359.75 279.28 360.81"/><polygon class="cls-24" points="276.37 363.08 219.82 305.02 221.16 303.97 277.71 362.03 276.37 363.08"/><polygon class="cls-24" points="273.46 365.36 216.91 307.3 218.25 306.25 274.8 364.31 273.46 365.36"/><polygon class="cls-24" points="270.55 367.64 214 309.58 215.34 308.53 271.89 366.59 270.55 367.64"/><polygon class="cls-24" points="267.64 369.92 211.09 311.86 212.43 310.81 268.98 368.87 267.64 369.92"/><polygon class="cls-24" points="264.73 372.2 208.18 314.14 209.52 313.09 266.07 371.15 264.73 372.2"/><polygon class="cls-24" points="261.82 374.48 205.27 316.42 206.61 315.36 263.16 373.43 261.82 374.48"/><polygon class="cls-24" points="258.91 376.75 202.35 318.69 203.7 317.64 260.25 375.7 258.91 376.75"/></g><g class="cls-29"><polygon class="cls-24" points="689.76 461.49 633.21 403.43 634.55 402.38 691.11 460.44 689.76 461.49"/><polygon class="cls-24" points="686.85 463.77 630.3 405.71 631.64 404.66 688.2 462.72 686.85 463.77"/><polygon class="cls-24" points="683.94 466.05 627.39 407.99 628.73 406.94 685.29 465 683.94 466.05"/><polygon class="cls-24" points="681.03 468.33 624.48 410.27 625.82 409.22 682.38 467.28 681.03 468.33"/><polygon class="cls-24" points="678.12 470.61 621.57 412.55 622.91 411.49 679.47 469.56 678.12 470.61"/><polygon class="cls-24" points="675.21 472.88 618.66 414.82 620 413.77 676.55 471.83 675.21 472.88"/><polygon class="cls-24" points="672.3 475.16 615.75 417.1 617.09 416.05 673.64 474.11 672.3 475.16"/><polygon class="cls-24" points="669.39 477.44 612.84 419.38 614.18 418.33 670.73 476.39 669.39 477.44"/><polygon class="cls-24" points="666.48 479.72 609.93 421.66 611.27 420.61 667.82 478.67 666.48 479.72"/><polygon class="cls-24" points="663.57 482 607.02 423.94 608.36 422.89 664.91 480.95 663.57 482"/><polygon class="cls-24" points="660.66 484.28 604.11 426.21 605.45 425.16 662 483.23 660.66 484.28"/><polygon class="cls-24" points="657.75 486.55 601.2 428.49 602.54 427.44 659.09 485.5 657.75 486.55"/></g><g class="cls-30"><polygon class="cls-24" points="425.98 65.42 369.42 7.36 370.76 6.31 427.32 64.37 425.98 65.42"/><polygon class="cls-24" points="423.06 67.7 366.51 9.64 367.86 8.59 424.41 66.65 423.06 67.7"/><polygon class="cls-24" points="420.15 69.98 363.6 11.92 364.94 10.86 421.5 68.93 420.15 69.98"/><polygon class="cls-24" points="417.24 72.26 360.69 14.2 362.03 13.14 418.58 71.2 417.24 72.26"/><polygon class="cls-24" points="414.33 74.53 357.78 16.47 359.12 15.42 415.68 73.48 414.33 74.53"/><polygon class="cls-24" points="411.42 76.81 354.87 18.75 356.21 17.7 412.76 75.76 411.42 76.81"/><polygon class="cls-24" points="408.51 79.09 351.96 21.03 353.3 19.98 409.85 78.04 408.51 79.09"/><polygon class="cls-24" points="405.6 81.37 349.05 23.31 350.39 22.26 406.94 80.32 405.6 81.37"/><polygon class="cls-24" points="402.69 83.65 346.14 25.59 347.48 24.54 404.03 82.6 402.69 83.65"/><polygon class="cls-24" points="399.78 85.93 343.23 27.86 344.57 26.81 401.12 84.87 399.78 85.93"/><polygon class="cls-24" points="396.87 88.2 340.32 30.14 341.66 29.09 398.21 87.15 396.87 88.2"/><polygon class="cls-24" points="393.96 90.48 337.41 32.42 338.75 31.37 395.3 89.43 393.96 90.48"/></g><g class="cls-31"><polygon class="cls-24" points="728.33 175.38 671.78 117.32 673.12 116.27 729.67 174.33 728.33 175.38"/><polygon class="cls-24" points="725.42 177.66 668.87 119.6 670.21 118.54 726.76 176.6 725.42 177.66"/><polygon class="cls-24" points="722.51 179.94 665.96 121.87 667.3 120.82 723.85 178.88 722.51 179.94"/><polygon class="cls-24" points="719.6 182.21 663.05 124.15 664.39 123.1 720.94 181.16 719.6 182.21"/><polygon class="cls-24" points="716.69 184.49 660.14 126.43 661.48 125.38 718.03 183.44 716.69 184.49"/><polygon class="cls-24" points="713.78 186.77 657.23 128.71 658.57 127.66 715.12 185.72 713.78 186.77"/><polygon class="cls-24" points="710.87 189.05 654.32 130.99 655.66 129.94 712.21 188 710.87 189.05"/><polygon class="cls-24" points="707.96 191.33 651.4 133.27 652.75 132.22 709.3 190.27 707.96 191.33"/><polygon class="cls-24" points="705.05 193.6 648.5 135.54 649.84 134.49 706.39 192.55 705.05 193.6"/><polygon class="cls-24" points="702.14 195.88 645.58 137.82 646.93 136.77 703.48 194.83 702.14 195.88"/><polygon class="cls-24" points="699.23 198.16 642.67 140.1 644.02 139.05 700.57 197.11 699.23 198.16"/><polygon class="cls-24" points="696.32 200.44 639.76 142.38 641.11 141.33 697.66 199.39 696.32 200.44"/></g><g class="cls-32"><polygon class="cls-24" points="149.99 410.43 35.73 453.55 34.36 450.63 148.62 407.51 149.99 410.43"/><polygon class="cls-24" points="152.96 416.75 38.7 459.87 37.33 456.95 151.59 413.83 152.96 416.75"/><polygon class="cls-24" points="155.92 423.06 41.66 466.19 40.29 463.27 154.55 420.15 155.92 423.06"/><polygon class="cls-24" points="158.89 429.38 44.63 472.51 43.26 469.59 157.52 426.47 158.89 429.38"/><polygon class="cls-24" points="161.86 435.7 47.6 478.82 46.23 475.91 160.49 432.78 161.86 435.7"/><polygon class="cls-24" points="164.82 442.02 50.56 485.14 49.2 482.23 163.46 439.1 164.82 442.02"/><polygon class="cls-24" points="167.79 448.34 53.53 491.46 52.16 488.54 166.42 445.42 167.79 448.34"/><polygon class="cls-24" points="170.76 454.66 56.5 497.78 55.13 494.86 169.39 451.74 170.76 454.66"/><polygon class="cls-24" points="173.73 460.97 59.47 504.1 58.1 501.18 172.36 458.06 173.73 460.97"/><polygon class="cls-24" points="176.69 467.29 62.43 510.42 61.06 507.5 175.32 464.38 176.69 467.29"/><polygon class="cls-24" points="179.66 473.61 65.4 516.73 64.03 513.82 178.29 470.69 179.66 473.61"/><polygon class="cls-24" points="182.63 479.93 68.37 523.05 67 520.14 181.26 477.01 182.63 479.93"/></g><g class="cls-33"><polygon class="cls-34" points="383.17 85.57 96.68 328.08 88.97 320.77 375.47 78.26 383.17 85.57"/><polygon class="cls-34" points="399.86 101.42 113.36 343.93 105.66 336.61 392.16 94.1 399.86 101.42"/><polygon class="cls-34" points="416.55 117.26 130.05 359.77 122.35 352.46 408.84 109.95 416.55 117.26"/><polygon class="cls-34" points="433.23 133.1 146.74 375.61 139.03 368.3 425.53 125.79 433.23 133.1"/><polygon class="cls-34" points="449.92 148.94 163.42 391.45 155.72 384.14 442.22 141.63 449.92 148.94"/><polygon class="cls-34" points="466.6 164.78 180.11 407.3 172.41 399.98 458.9 157.47 466.6 164.78"/><polygon class="cls-34" points="483.29 180.63 196.79 423.14 189.09 415.83 475.59 173.31 483.29 180.63"/><polygon class="cls-34" points="499.98 196.47 213.48 438.98 205.78 431.67 492.27 189.16 499.98 196.47"/><polygon class="cls-34" points="516.66 212.31 230.17 454.82 222.47 447.51 508.96 205 516.66 212.31"/><polygon class="cls-34" points="533.35 228.15 246.85 470.66 239.15 463.35 525.65 220.84 533.35 228.15"/><polygon class="cls-34" points="550.03 244 263.54 486.51 255.84 479.19 542.33 236.69 550.03 244"/><polygon class="cls-34" points="566.72 259.84 280.23 502.35 272.52 495.04 559.02 252.53 566.72 259.84"/></g><g class="cls-35"><polygon class="cls-34" points="479.15 160.17 412.12 31.36 416.21 29.64 483.25 158.46 479.15 160.17"/><polygon class="cls-34" points="470.29 163.88 403.26 35.06 407.35 33.35 474.38 162.17 470.29 163.88"/><polygon class="cls-34" points="461.43 167.59 394.39 38.77 398.49 37.06 465.52 165.88 461.43 167.59"/><polygon class="cls-34" points="452.56 171.29 385.53 42.48 389.62 40.76 456.66 169.58 452.56 171.29"/><polygon class="cls-34" points="443.7 175 376.67 46.18 380.76 44.47 447.79 173.29 443.7 175"/><polygon class="cls-34" points="434.84 178.71 367.81 49.89 371.89 48.18 438.93 177 434.84 178.71"/><polygon class="cls-34" points="425.97 182.41 358.94 53.59 363.03 51.88 430.06 180.7 425.97 182.41"/><polygon class="cls-34" points="417.11 186.12 350.08 57.3 354.17 55.59 421.2 184.41 417.11 186.12"/><polygon class="cls-34" points="408.25 189.83 341.21 61.01 345.31 59.3 412.34 188.12 408.25 189.83"/><polygon class="cls-34" points="399.38 193.53 332.35 64.72 336.44 63 403.47 191.82 399.38 193.53"/><polygon class="cls-34" points="390.52 197.24 323.49 68.42 327.58 66.71 394.61 195.53 390.52 197.24"/><polygon class="cls-34" points="381.66 200.95 314.62 72.13 318.71 70.42 385.75 199.24 381.66 200.95"/></g><g class="cls-36"><polygon class="cls-34" points="69.32 100.08 2.29 -28.74 6.38 -30.45 73.41 98.37 69.32 100.08"/><polygon class="cls-34" points="60.46 103.79 -6.58 -25.03 -2.48 -26.74 64.55 102.08 60.46 103.79"/><polygon class="cls-34" points="51.59 107.5 -15.44 -21.32 -11.35 -23.03 55.69 105.78 51.59 107.5"/><polygon class="cls-34" points="42.73 111.2 -24.3 -17.62 -20.21 -19.33 46.82 109.49 42.73 111.2"/><polygon class="cls-34" points="33.87 114.91 -33.16 -13.91 -29.07 -15.62 37.96 113.2 33.87 114.91"/><polygon class="cls-34" points="25 118.61 -42.03 -10.2 -37.94 -11.91 29.09 116.9 25 118.61"/><polygon class="cls-34" points="16.14 122.32 -50.89 -6.5 -46.8 -8.21 20.23 120.61 16.14 122.32"/><polygon class="cls-34" points="7.28 126.03 -59.76 -2.79 -55.66 -4.5 11.37 124.32 7.28 126.03"/><polygon class="cls-34" points="-1.59 129.74 -68.62 0.92 -64.53 -0.79 2.5 128.02 -1.59 129.74"/></g><g class="cls-37"><polygon class="cls-34" points="493.73 47.17 370.19 -190.24 377.73 -193.39 501.27 44.02 493.73 47.17"/><polygon class="cls-34" points="477.39 54 353.85 -183.41 361.39 -186.56 484.93 50.85 477.39 54"/><polygon class="cls-34" points="461.06 60.83 337.51 -176.58 345.06 -179.73 468.6 57.68 461.06 60.83"/><polygon class="cls-34" points="444.72 67.67 321.18 -169.75 328.72 -172.9 452.26 64.51 444.72 67.67"/><polygon class="cls-34" points="428.39 74.5 304.85 -162.91 312.39 -166.07 435.93 71.34 428.39 74.5"/><polygon class="cls-34" points="412.05 81.33 288.51 -156.08 296.05 -159.24 419.59 78.17 412.05 81.33"/><polygon class="cls-34" points="395.72 88.16 272.17 -149.25 279.71 -152.41 403.25 85.01 395.72 88.16"/><polygon class="cls-34" points="379.38 94.99 255.84 -142.42 263.38 -145.57 386.92 91.84 379.38 94.99"/><polygon class="cls-34" points="363.05 101.82 239.5 -135.59 247.04 -138.74 370.58 98.67 363.05 101.82"/><polygon class="cls-34" points="346.71 108.66 223.17 -128.76 230.71 -131.91 354.25 105.5 346.71 108.66"/><polygon class="cls-34" points="330.37 115.48 206.83 -121.93 214.37 -125.08 337.91 112.33 330.37 115.48"/><polygon class="cls-34" points="314.04 122.32 190.5 -115.09 198.03 -118.25 321.58 119.16 314.04 122.32"/></g><g class="cls-38"><rect class="cls-39" x="359.07" y="158.93" width="131.9" height="3.37"/><rect class="cls-39" x="359.07" y="166.22" width="131.9" height="3.37"/><rect class="cls-39" x="359.07" y="173.52" width="131.9" height="3.37"/><rect class="cls-39" x="359.07" y="180.81" width="131.9" height="3.37"/><rect class="cls-39" x="359.07" y="188.1" width="131.9" height="3.37"/><rect class="cls-39" x="359.07" y="195.4" width="131.9" height="3.37"/><rect class="cls-39" x="359.07" y="202.69" width="131.9" height="3.37"/><rect class="cls-39" x="359.07" y="209.98" width="131.9" height="3.37"/><rect class="cls-39" x="359.07" y="217.28" width="131.9" height="3.37"/><rect class="cls-39" x="359.07" y="224.57" width="131.9" height="3.37"/><rect class="cls-39" x="359.07" y="231.87" width="131.9" height="3.37"/><rect class="cls-39" x="359.07" y="239.16" width="131.9" height="3.37"/></g><g class="cls-40"><rect class="cls-39" x="120.9" y="478.57" width="131.9" height="3.37"/><rect class="cls-39" x="120.9" y="485.86" width="131.9" height="3.37"/><rect class="cls-39" x="120.9" y="493.15" width="131.9" height="3.37"/><rect class="cls-39" x="120.9" y="500.45" width="131.9" height="3.37"/><rect class="cls-39" x="120.9" y="507.74" width="131.9" height="3.37"/><rect class="cls-39" x="120.9" y="515.04" width="131.9" height="3.37"/><rect class="cls-39" x="120.9" y="522.33" width="131.9" height="3.37"/><rect class="cls-39" x="120.9" y="529.62" width="131.9" height="3.37"/><rect class="cls-39" x="120.9" y="536.92" width="131.9" height="3.37"/><rect class="cls-39" x="120.9" y="544.21" width="131.9" height="3.37"/><rect class="cls-39" x="120.9" y="551.5" width="131.9" height="3.37"/><rect class="cls-39" x="120.9" y="558.8" width="131.9" height="3.37"/></g><g class="cls-41"><rect class="cls-39" x="-20.88" y="428.44" width="74.54" height="1.9"/><rect class="cls-39" x="-20.88" y="432.56" width="74.54" height="1.9"/><rect class="cls-39" x="-20.88" y="436.68" width="74.54" height="1.9"/><rect class="cls-39" x="-20.88" y="440.8" width="74.54" height="1.9"/><rect class="cls-39" x="-20.88" y="444.92" width="74.54" height="1.9"/><rect class="cls-39" x="-20.88" y="449.05" width="74.54" height="1.9"/><rect class="cls-39" x="-20.88" y="453.17" width="74.54" height="1.9"/><rect class="cls-39" x="-20.88" y="457.29" width="74.54" height="1.9"/><rect class="cls-39" x="-20.88" y="461.41" width="74.54" height="1.9"/><rect class="cls-39" x="-20.88" y="465.53" width="74.54" height="1.9"/><rect class="cls-39" x="-20.88" y="469.65" width="74.54" height="1.9"/><rect class="cls-39" x="-20.88" y="473.78" width="74.54" height="1.9"/></g><g class="cls-42"><polygon class="cls-39" points="487.46 440.46 345.5 368.93 347.77 365.31 489.73 436.83 487.46 440.46"/><polygon class="cls-39" points="482.54 448.31 340.58 376.78 342.85 373.16 484.81 444.68 482.54 448.31"/><polygon class="cls-39" points="477.62 456.16 335.66 384.63 337.93 381.01 479.89 452.53 477.62 456.16"/><polygon class="cls-39" points="472.69 464.01 330.74 392.48 333.01 388.86 474.97 460.38 472.69 464.01"/><polygon class="cls-39" points="467.77 471.86 325.81 400.33 328.09 396.71 470.05 468.23 467.77 471.86"/><polygon class="cls-39" points="462.85 479.71 320.89 408.18 323.17 404.56 465.13 476.08 462.85 479.71"/><polygon class="cls-39" points="457.93 487.56 315.97 416.03 318.24 412.41 460.2 483.93 457.93 487.56"/><polygon class="cls-39" points="453.01 495.41 311.05 423.88 313.32 420.26 455.28 491.78 453.01 495.41"/><polygon class="cls-39" points="448.09 503.26 306.13 431.73 308.4 428.11 450.36 499.63 448.09 503.26"/><polygon class="cls-39" points="443.17 511.11 301.21 439.58 303.48 435.96 445.44 507.48 443.17 511.11"/><polygon class="cls-39" points="438.25 518.96 296.29 447.43 298.56 443.81 440.52 515.33 438.25 518.96"/><polygon class="cls-39" points="433.32 526.81 291.36 455.28 293.63 451.66 435.6 523.18 433.32 526.81"/></g><g class="cls-43"><polygon class="cls-39" points="837.09 511.18 670.32 427.15 672.98 422.89 839.75 506.92 837.09 511.18"/><polygon class="cls-39" points="831.3 520.4 664.53 436.37 667.2 432.11 833.98 516.14 831.3 520.4"/><polygon class="cls-39" points="825.52 529.62 658.75 445.59 661.42 441.34 828.19 525.36 825.52 529.62"/><polygon class="cls-39" points="819.74 538.84 652.97 454.81 655.64 450.56 822.41 534.59 819.74 538.84"/><polygon class="cls-39" points="813.96 548.06 647.19 464.04 649.86 459.78 816.63 543.8 813.96 548.06"/><polygon class="cls-39" points="808.18 557.28 641.41 473.26 644.08 469 810.85 553.03 808.18 557.28"/><polygon class="cls-39" points="802.4 566.51 635.63 482.48 638.29 478.22 805.07 562.25 802.4 566.51"/><polygon class="cls-39" points="796.62 575.73 629.85 491.7 632.51 487.44 799.28 571.47 796.62 575.73"/><polygon class="cls-39" points="790.83 584.95 624.06 500.92 626.73 496.67 793.5 580.69 790.83 584.95"/><polygon class="cls-39" points="785.05 594.17 618.28 510.14 620.95 505.89 787.72 589.92 785.05 594.17"/><polygon class="cls-39" points="779.27 603.39 612.5 519.37 615.17 515.11 781.94 599.14 779.27 603.39"/><polygon class="cls-39" points="773.49 612.62 606.72 528.59 609.39 524.33 776.16 608.36 773.49 612.62"/></g><g class="cls-44"><polygon class="cls-39" points="131.16 416.43 34.52 335.95 37.08 333.48 133.72 413.96 131.16 416.43"/><polygon class="cls-39" points="125.62 421.77 28.99 341.29 31.54 338.82 128.18 419.3 125.62 421.77"/><polygon class="cls-39" points="120.08 427.11 23.45 346.64 26.01 344.17 122.64 424.65 120.08 427.11"/><polygon class="cls-39" points="114.55 432.46 17.91 351.98 20.47 349.51 117.1 429.99 114.55 432.46"/><polygon class="cls-39" points="109.01 437.8 12.38 357.32 14.93 354.86 111.57 435.33 109.01 437.8"/><polygon class="cls-39" points="103.47 443.14 6.84 362.67 9.39 360.2 106.03 440.68 103.47 443.14"/><polygon class="cls-39" points="97.94 448.49 1.3 368.01 3.86 365.54 100.49 446.02 97.94 448.49"/><polygon class="cls-39" points="92.4 453.83 -4.24 373.35 -1.68 370.89 94.95 451.36 92.4 453.83"/><polygon class="cls-39" points="86.86 459.18 -9.77 378.7 -7.22 376.23 89.42 456.71 86.86 459.18"/><polygon class="cls-39" points="81.32 464.52 -15.31 384.04 -12.76 381.57 83.88 462.05 81.32 464.52"/><polygon class="cls-39" points="75.79 469.86 -20.85 389.38 -18.29 386.92 78.34 467.4 75.79 469.86"/><polygon class="cls-39" points="70.25 475.2 -26.39 394.73 -23.83 392.26 72.81 472.74 70.25 475.2"/></g><g class="cls-45"><polygon class="cls-39" points="690.68 58.97 642.11 18.52 643.39 17.28 691.96 57.73 690.68 58.97"/><polygon class="cls-39" points="687.89 61.66 639.32 21.21 640.61 19.97 689.18 60.42 687.89 61.66"/><polygon class="cls-39" points="685.11 64.34 636.54 23.89 637.82 22.65 686.39 63.1 685.11 64.34"/><polygon class="cls-39" points="682.33 67.03 633.75 26.58 635.04 25.34 683.61 65.79 682.33 67.03"/><polygon class="cls-39" points="679.54 69.72 630.97 29.27 632.26 28.02 680.83 68.47 679.54 69.72"/><polygon class="cls-39" points="676.76 72.4 628.19 31.95 629.47 30.71 678.04 71.16 676.76 72.4"/><polygon class="cls-39" points="673.98 75.09 625.4 34.64 626.69 33.4 675.26 73.85 673.98 75.09"/><polygon class="cls-39" points="671.19 77.77 622.62 37.32 623.91 36.08 672.48 76.53 671.19 77.77"/><polygon class="cls-39" points="668.41 80.46 619.84 40.01 621.12 38.77 669.69 79.22 668.41 80.46"/><polygon class="cls-39" points="665.63 83.14 617.06 42.69 618.34 41.45 666.91 81.91 665.63 83.14"/><polygon class="cls-39" points="662.84 85.83 614.27 45.38 615.56 44.14 664.13 84.59 662.84 85.83"/><polygon class="cls-39" points="660.06 88.52 611.49 48.07 612.77 46.83 661.35 87.28 660.06 88.52"/></g><g class="cls-46"><polygon class="cls-39" points="746.68 370.64 670.63 307.31 672.64 305.37 748.69 368.7 746.68 370.64"/><polygon class="cls-39" points="742.32 374.85 666.27 311.52 668.28 309.58 744.33 372.91 742.32 374.85"/><polygon class="cls-39" points="737.96 379.05 661.92 315.72 663.93 313.78 739.97 377.11 737.96 379.05"/><polygon class="cls-39" points="733.6 383.26 657.56 319.93 659.57 317.99 735.62 381.32 733.6 383.26"/><polygon class="cls-39" points="729.25 387.46 653.2 324.13 655.21 322.19 731.26 385.52 729.25 387.46"/><polygon class="cls-39" points="724.89 391.67 648.85 328.34 650.86 326.4 726.9 389.73 724.89 391.67"/><polygon class="cls-39" points="720.53 395.87 644.49 332.54 646.5 330.6 722.54 393.93 720.53 395.87"/><polygon class="cls-39" points="716.17 400.08 640.13 336.75 642.14 334.81 718.18 398.14 716.17 400.08"/><polygon class="cls-39" points="711.82 404.28 635.77 340.95 637.78 339.01 713.83 402.34 711.82 404.28"/><polygon class="cls-39" points="707.46 408.49 631.42 345.16 633.43 343.22 709.47 406.55 707.46 408.49"/><polygon class="cls-39" points="703.1 412.69 627.06 349.36 629.07 347.42 705.11 410.75 703.1 412.69"/><polygon class="cls-39" points="698.74 416.9 622.7 353.57 624.71 351.63 700.76 414.96 698.74 416.9"/></g><g class="cls-47"><rect class="cls-39" x="-96.87" y="109.01" width="216.02" height="5.51"/><rect class="cls-39" x="-96.87" y="120.96" width="216.02" height="5.51"/><rect class="cls-39" x="-96.87" y="132.9" width="216.02" height="5.51"/><rect class="cls-39" x="-96.87" y="144.85" width="216.02" height="5.51"/><rect class="cls-39" x="-96.87" y="156.79" width="216.02" height="5.51"/><rect class="cls-39" x="-96.87" y="168.74" width="216.02" height="5.51"/><rect class="cls-39" x="-96.87" y="180.69" width="216.02" height="5.51"/><rect class="cls-39" x="-96.87" y="192.63" width="216.02" height="5.51"/><rect class="cls-39" x="-96.87" y="204.58" width="216.02" height="5.51"/><rect class="cls-39" x="-96.87" y="216.52" width="216.02" height="5.51"/><rect class="cls-39" x="-96.87" y="228.47" width="216.02" height="5.51"/><rect class="cls-39" x="-96.87" y="240.41" width="216.02" height="5.51"/></g><g class="cls-48"><polygon class="cls-39" points="175.74 18.02 81.53 -52.9 83.78 -55.3 177.99 15.62 175.74 18.02"/><polygon class="cls-39" points="170.86 23.23 76.65 -47.69 78.9 -50.09 173.11 20.83 170.86 23.23"/><polygon class="cls-39" points="165.98 28.44 71.77 -42.48 74.02 -44.88 168.23 26.04 165.98 28.44"/><polygon class="cls-39" points="161.1 33.65 66.89 -37.27 69.14 -39.67 163.35 31.25 161.1 33.65"/><polygon class="cls-39" points="156.22 38.86 62.01 -32.06 64.26 -34.46 158.47 36.45 156.22 38.86"/><polygon class="cls-39" points="151.34 44.07 57.13 -26.85 59.38 -29.25 153.59 41.66 151.34 44.07"/><polygon class="cls-39" points="146.46 49.28 52.25 -21.64 54.5 -24.04 148.71 46.87 146.46 49.28"/><polygon class="cls-39" points="141.58 54.49 47.37 -16.43 49.62 -18.83 143.83 52.08 141.58 54.49"/><polygon class="cls-39" points="136.7 59.7 42.49 -11.22 44.75 -13.62 138.96 57.29 136.7 59.7"/><polygon class="cls-39" points="131.82 64.91 37.61 -6.01 39.87 -8.41 134.07 62.5 131.82 64.91"/><polygon class="cls-39" points="126.94 70.12 32.73 -0.8 34.99 -3.2 129.2 67.71 126.94 70.12"/><polygon class="cls-39" points="122.06 75.33 27.86 4.41 30.11 2.01 124.32 72.92 122.06 75.33"/></g><g class="cls-49"><polygon class="cls-39" points="428.09 -14.32 402.7 109.28 398.77 108.63 424.16 -14.97 428.09 -14.32"/><polygon class="cls-39" points="436.59 -12.92 411.2 110.68 407.28 110.03 432.67 -13.57 436.59 -12.92"/><polygon class="cls-39" points="445.1 -11.52 419.71 112.08 415.78 111.44 441.17 -12.16 445.1 -11.52"/><polygon class="cls-39" points="453.6 -10.11 428.21 113.49 424.29 112.84 449.68 -10.76 453.6 -10.11"/><polygon class="cls-39" points="462.1 -8.71 436.72 114.89 432.79 114.25 458.18 -9.36 462.1 -8.71"/><polygon class="cls-39" points="470.61 -7.3 445.22 116.3 441.3 115.65 466.69 -7.95 470.61 -7.3"/><polygon class="cls-39" points="479.11 -5.9 453.73 117.7 449.8 117.05 475.19 -6.55 479.11 -5.9"/><polygon class="cls-39" points="487.62 -4.5 462.23 119.11 458.3 118.46 483.69 -5.15 487.62 -4.5"/><polygon class="cls-39" points="496.12 -3.09 470.73 120.51 466.81 119.86 492.2 -3.74 496.12 -3.09"/><polygon class="cls-39" points="504.63 -1.69 479.24 121.91 475.31 121.27 500.7 -2.34 504.63 -1.69"/><polygon class="cls-39" points="513.13 -0.29 487.74 123.32 483.82 122.67 509.21 -0.93 513.13 -0.29"/><polygon class="cls-39" points="521.64 1.12 496.25 124.72 492.32 124.07 517.71 0.47 521.64 1.12"/></g><g class="cls-50"><polygon class="cls-4" points="770.51 151.06 576.62 234.13 573.99 229.18 767.87 146.11 770.51 151.06"/><polygon class="cls-4" points="776.23 161.78 582.34 244.85 579.7 239.9 773.59 156.83 776.23 161.78"/><polygon class="cls-4" points="781.94 172.5 588.05 255.57 585.42 250.62 779.3 167.55 781.94 172.5"/><polygon class="cls-4" points="787.66 183.22 593.77 266.29 591.13 261.35 785.02 178.27 787.66 183.22"/><polygon class="cls-4" points="793.37 193.94 599.49 277.01 596.85 272.07 790.74 189 793.37 193.94"/><polygon class="cls-4" points="799.09 204.67 605.2 287.74 602.56 282.79 796.45 199.72 799.09 204.67"/><polygon class="cls-4" points="804.8 215.39 610.92 298.46 608.28 293.51 802.17 210.44 804.8 215.39"/><polygon class="cls-4" points="810.52 226.11 616.63 309.18 614 304.23 807.88 221.16 810.52 226.11"/><polygon class="cls-4" points="816.24 236.83 622.35 319.9 619.71 314.95 813.6 231.88 816.24 236.83"/><polygon class="cls-4" points="821.95 247.55 628.07 330.62 625.43 325.67 819.31 242.6 821.95 247.55"/><polygon class="cls-4" points="827.67 258.27 633.78 341.34 631.14 336.39 825.03 253.32 827.67 258.27"/><polygon class="cls-4" points="833.38 268.99 639.5 352.06 636.86 347.12 830.75 264.05 833.38 268.99"/></g><g class="cls-51"><polygon class="cls-4" points="800.02 34.23 673.88 49.36 673.4 46.14 799.53 31.01 800.02 34.23"/><polygon class="cls-4" points="801.06 41.2 674.93 56.34 674.44 53.12 800.58 37.98 801.06 41.2"/><polygon class="cls-4" points="802.1 48.18 675.97 63.31 675.49 60.09 801.62 44.96 802.1 48.18"/><polygon class="cls-4" points="803.14 55.15 677.01 70.29 676.53 67.07 802.66 51.93 803.14 55.15"/><polygon class="cls-4" points="804.18 62.13 678.05 77.26 677.57 74.04 803.7 58.91 804.18 62.13"/><polygon class="cls-4" points="805.23 69.1 679.09 84.24 678.61 81.02 804.74 65.88 805.23 69.1"/><polygon class="cls-4" points="806.26 76.08 680.13 91.21 679.65 87.99 805.78 72.86 806.26 76.08"/><polygon class="cls-4" points="807.31 83.05 681.17 98.19 680.69 94.97 806.82 79.83 807.31 83.05"/><polygon class="cls-4" points="808.35 90.03 682.22 105.16 681.73 101.94 807.87 86.81 808.35 90.03"/><polygon class="cls-4" points="809.39 97 683.26 112.14 682.77 108.92 808.91 93.78 809.39 97"/><polygon class="cls-4" points="810.43 103.98 684.3 119.11 683.82 115.89 809.95 100.76 810.43 103.98"/><polygon class="cls-4" points="811.47 110.95 685.34 126.08 684.86 122.87 810.99 107.73 811.47 110.95"/></g><g class="cls-52"><polygon class="cls-12" points="789.68 350.55 743.21 292.95 745.04 291.76 791.51 349.36 789.68 350.55"/><polygon class="cls-12" points="785.72 353.12 739.25 295.52 741.08 294.33 787.55 351.93 785.72 353.12"/><polygon class="cls-12" points="781.76 355.69 735.29 298.09 737.11 296.9 783.59 354.5 781.76 355.69"/><polygon class="cls-12" points="777.79 358.26 731.32 300.66 733.15 299.47 779.62 357.07 777.79 358.26"/><polygon class="cls-12" points="773.83 360.83 727.36 303.23 729.19 302.04 775.66 359.64 773.83 360.83"/><polygon class="cls-12" points="769.87 363.4 723.39 305.8 725.22 304.61 771.7 362.21 769.87 363.4"/><polygon class="cls-12" points="765.9 365.97 719.43 308.37 721.26 307.18 767.73 364.78 765.9 365.97"/><polygon class="cls-12" points="761.94 368.54 715.47 310.94 717.3 309.75 763.77 367.35 761.94 368.54"/><polygon class="cls-12" points="757.98 371.11 711.51 313.51 713.34 312.32 759.81 369.92 757.98 371.11"/><polygon class="cls-12" points="754.01 373.68 707.54 316.08 709.37 314.89 755.84 372.49 754.01 373.68"/><polygon class="cls-12" points="750.05 376.25 703.58 318.65 705.41 317.46 751.88 375.06 750.05 376.25"/><polygon class="cls-12" points="746.09 378.82 699.62 321.22 701.44 320.03 747.92 377.63 746.09 378.82"/></g><g class="cls-53"><polygon class="cls-12" points="799.59 201.13 748.6 137.93 750.61 136.63 801.6 199.83 799.59 201.13"/><polygon class="cls-12" points="795.24 203.95 744.25 140.75 746.26 139.45 797.25 202.65 795.24 203.95"/><polygon class="cls-12" points="790.89 206.77 739.9 143.57 741.91 142.27 792.9 205.47 790.89 206.77"/><polygon class="cls-12" points="786.54 209.59 735.55 146.39 737.56 145.09 788.55 208.29 786.54 209.59"/><polygon class="cls-12" points="782.19 212.41 731.21 149.21 733.21 147.91 784.2 211.11 782.19 212.41"/><polygon class="cls-12" points="777.84 215.23 726.86 152.03 728.86 150.73 779.85 213.93 777.84 215.23"/><polygon class="cls-12" points="773.5 218.05 722.51 154.85 724.52 153.55 775.5 216.75 773.5 218.05"/><polygon class="cls-12" points="769.15 220.87 718.16 157.67 720.17 156.37 771.15 219.57 769.15 220.87"/><polygon class="cls-12" points="764.8 223.69 713.81 160.49 715.82 159.19 766.81 222.39 764.8 223.69"/><polygon class="cls-12" points="760.45 226.51 709.46 163.31 711.47 162.01 762.46 225.21 760.45 226.51"/><polygon class="cls-12" points="756.1 229.33 705.12 166.13 707.12 164.83 758.11 228.03 756.1 229.33"/><polygon class="cls-12" points="751.75 232.15 700.77 168.95 702.77 167.65 753.76 230.84 751.75 232.15"/></g><g class="cls-54"><polygon class="cls-12" points="111.13 594.6 99.22 479.24 102.88 478.93 114.8 594.3 111.13 594.6"/><polygon class="cls-12" points="103.2 595.26 91.28 479.9 94.94 479.59 106.86 594.96 103.2 595.26"/><polygon class="cls-12" points="95.26 595.92 83.34 480.56 87.01 480.25 98.92 595.62 95.26 595.92"/><polygon class="cls-12" points="87.32 596.58 75.41 481.22 79.07 480.91 90.98 596.27 87.32 596.58"/><polygon class="cls-12" points="79.38 597.23 67.47 481.87 71.13 481.57 83.05 596.93 79.38 597.23"/><polygon class="cls-12" points="71.44 597.89 59.53 482.53 63.19 482.23 75.11 597.59 71.44 597.89"/><polygon class="cls-12" points="63.51 598.55 51.59 483.19 55.26 482.89 67.17 598.25 63.51 598.55"/><polygon class="cls-12" points="55.57 599.21 43.65 483.85 47.32 483.55 59.23 598.91 55.57 599.21"/><polygon class="cls-12" points="47.63 599.87 35.72 484.51 39.38 484.2 51.3 599.57 47.63 599.87"/><polygon class="cls-12" points="39.69 600.53 27.78 485.17 31.44 484.87 43.36 600.23 39.69 600.53"/><polygon class="cls-12" points="31.76 601.19 19.84 485.83 23.5 485.52 35.42 600.88 31.76 601.19"/><polygon class="cls-12" points="23.82 601.85 11.9 486.49 15.57 486.18 27.48 601.54 23.82 601.85"/></g><g class="cls-55"><polygon class="cls-12" points="702.42 517.88 873.37 465.17 875.04 469.54 704.09 522.24 702.42 517.88"/><polygon class="cls-12" points="698.79 508.43 869.74 455.72 871.42 460.08 700.46 512.79 698.79 508.43"/><polygon class="cls-12" points="695.16 498.97 866.12 446.27 867.79 450.63 696.84 503.33 695.16 498.97"/><polygon class="cls-12" points="691.54 489.52 862.49 436.81 864.16 441.18 693.21 493.88 691.54 489.52"/><polygon class="cls-12" points="687.91 480.06 858.86 427.36 860.54 431.72 689.58 484.43 687.91 480.06"/><polygon class="cls-12" points="684.28 470.61 855.24 417.91 856.91 422.27 685.96 474.97 684.28 470.61"/><polygon class="cls-12" points="680.66 461.16 851.61 408.45 853.28 412.82 682.33 465.52 680.66 461.16"/><polygon class="cls-12" points="677.03 451.71 847.98 399 849.66 403.36 678.7 456.07 677.03 451.71"/><polygon class="cls-12" points="673.4 442.25 844.36 389.55 846.03 393.91 675.08 446.62 673.4 442.25"/><polygon class="cls-12" points="669.78 432.8 840.73 380.1 842.4 384.46 671.45 437.16 669.78 432.8"/><polygon class="cls-12" points="666.15 423.35 837.1 370.64 838.78 375 667.83 427.71 666.15 423.35"/><polygon class="cls-12" points="662.52 413.89 833.48 361.19 835.15 365.55 664.2 418.26 662.52 413.89"/></g><g class="cls-56"><polygon class="cls-12" points="836.51 59.48 896.83 -44.55 900.14 -43.01 839.82 61.02 836.51 59.48"/><polygon class="cls-12" points="829.36 56.15 889.68 -47.89 892.98 -46.35 832.66 57.69 829.36 56.15"/><polygon class="cls-12" points="822.2 52.81 882.52 -51.22 885.82 -49.68 825.5 54.35 822.2 52.81"/><polygon class="cls-12" points="815.04 49.48 875.36 -54.56 878.66 -53.02 818.34 51.02 815.04 49.48"/><polygon class="cls-12" points="807.88 46.14 868.2 -57.89 871.5 -56.35 811.18 47.68 807.88 46.14"/><polygon class="cls-12" points="800.72 42.81 861.04 -61.23 864.35 -59.69 804.02 44.35 800.72 42.81"/><polygon class="cls-12" points="793.56 39.47 853.88 -64.56 857.19 -63.02 796.87 41.01 793.56 39.47"/><polygon class="cls-12" points="786.4 36.14 846.73 -67.9 850.03 -66.36 789.71 37.68 786.4 36.14"/><polygon class="cls-12" points="779.25 32.8 839.57 -71.23 842.87 -69.7 782.55 34.34 779.25 32.8"/><polygon class="cls-12" points="772.09 29.46 832.41 -74.57 835.71 -73.03 775.39 31 772.09 29.46"/><polygon class="cls-12" points="764.93 26.13 825.25 -77.91 828.55 -76.37 768.23 27.67 764.93 26.13"/><polygon class="cls-12" points="757.77 22.79 818.09 -81.24 821.39 -79.7 761.08 24.33 757.77 22.79"/></g><g class="cls-57"><path class="cls-24" d="M880.88,234.8H737.14v5.34H880.58C880.68,238.36,880.77,236.58,880.88,234.8Z"/><path class="cls-24" d="M880.29,246.36H737.14v5.34H880.06C880.13,249.92,880.21,248.14,880.29,246.36Z"/><path class="cls-24" d="M879.86,257.93H737.14v5.34H879.69C879.74,261.49,879.8,259.71,879.86,257.93Z"/><path class="cls-24" d="M879.54,269.49H737.14v5.34H879.42Z"/><path class="cls-24" d="M879.29,281.06H737.14v5.33h142C879.22,284.61,879.26,282.84,879.29,281.06Z"/><path class="cls-24" d="M879.06,292.62H737.14V298h141.8Z"/><path class="cls-24" d="M878.79,304.18H737.14v5.34H878.67Z"/><path class="cls-24" d="M878.52,315.75H737.14v5.34H878.39C878.43,319.31,878.48,317.53,878.52,315.75Z"/><path class="cls-24" d="M878.26,327.31H737.14v5.34h141C878.19,330.87,878.22,329.09,878.26,327.31Z"/><path class="cls-24" d="M878,338.88H737.14v5.33H877.93C878,342.43,878,340.66,878,338.88Z"/><path class="cls-24" d="M877.82,350.44H737.14v5.34h140.6C877.76,354,877.79,352.22,877.82,350.44Z"/><path class="cls-24" d="M877.63,362H737.14v5.34H877.55C877.58,365.56,877.61,363.78,877.63,362Z"/></g><g class="cls-58"><polygon class="cls-24" points="832.45 156.92 775.9 98.86 777.24 97.81 833.8 155.87 832.45 156.92"/><polygon class="cls-24" points="829.54 159.2 772.99 101.14 774.33 100.08 830.89 158.15 829.54 159.2"/><polygon class="cls-24" points="826.63 161.48 770.08 103.42 771.42 102.36 827.98 160.42 826.63 161.48"/><polygon class="cls-24" points="823.72 163.75 767.17 105.69 768.51 104.64 825.06 162.7 823.72 163.75"/><polygon class="cls-24" points="820.81 166.03 764.26 107.97 765.6 106.92 822.15 164.98 820.81 166.03"/><polygon class="cls-24" points="817.9 168.31 761.35 110.25 762.69 109.2 819.24 167.26 817.9 168.31"/><polygon class="cls-24" points="814.99 170.59 758.44 112.53 759.78 111.48 816.33 169.54 814.99 170.59"/><polygon class="cls-24" points="812.08 172.87 755.53 114.81 756.87 113.76 813.42 171.81 812.08 172.87"/><polygon class="cls-24" points="809.17 175.15 752.62 117.08 753.96 116.03 810.51 174.09 809.17 175.15"/><polygon class="cls-24" points="806.26 177.43 749.7 119.36 751.05 118.31 807.6 176.37 806.26 177.43"/><polygon class="cls-24" points="803.35 179.7 746.79 121.64 748.14 120.59 804.69 178.65 803.35 179.7"/><polygon class="cls-24" points="800.44 181.98 743.88 123.92 745.23 122.87 801.78 180.93 800.44 181.98"/></g><g class="cls-59"><path class="cls-34" d="M899.79,89.89,839.1-26.74,835-25,898.59,97.15C899,94.73,899.39,92.31,899.79,89.89Z"/><path class="cls-34" d="M897.22,105.8s0,0,0-.08L830.24-23l-4.09,1.71,67,128.81Z"/><polygon class="cls-34" points="884.32 111.2 817.29 -17.62 821.38 -19.33 888.41 109.49 884.32 111.2"/><polygon class="cls-34" points="875.46 114.91 808.42 -13.91 812.51 -15.62 879.55 113.2 875.46 114.91"/><polygon class="cls-34" points="866.59 118.61 799.56 -10.2 803.65 -11.91 870.68 116.9 866.59 118.61"/><polygon class="cls-34" points="857.73 122.32 790.7 -6.5 794.79 -8.21 861.82 120.61 857.73 122.32"/><polygon class="cls-34" points="848.86 126.03 781.83 -2.79 785.92 -4.5 852.95 124.32 848.86 126.03"/><polygon class="cls-34" points="840 129.74 772.97 0.92 777.06 -0.79 844.09 128.02 840 129.74"/><polygon class="cls-34" points="831.14 133.44 764.11 4.63 768.2 2.91 835.23 131.73 831.14 133.44"/><polygon class="cls-34" points="822.27 137.15 755.24 8.33 759.33 6.62 826.36 135.44 822.27 137.15"/><polygon class="cls-34" points="813.41 140.85 746.38 12.04 750.47 10.33 817.5 139.14 813.41 140.85"/></g><g class="cls-60"><path class="cls-39" d="M876.92,428.44H820.7v1.9h56.21C876.91,429.71,876.92,429.07,876.92,428.44Z"/><path class="cls-39" d="M876.9,432.56H820.7v1.9h56.19C876.89,433.83,876.89,433.19,876.9,432.56Z"/><path class="cls-39" d="M876.88,436.68H820.7v1.9h56.17C876.87,438,876.87,437.32,876.88,436.68Z"/><path class="cls-39" d="M876.86,440.8H820.7v1.91h56.15C876.85,442.07,876.85,441.44,876.86,440.8Z"/><path class="cls-39" d="M876.84,444.92H820.7v1.91h56.13C876.83,446.19,876.83,445.56,876.84,444.92Z"/><path class="cls-39" d="M876.82,449.05H820.7V451h56.11C876.81,450.31,876.82,449.68,876.82,449.05Z"/><path class="cls-39" d="M876.8,453.17H820.7v1.9h56.1Z"/><path class="cls-39" d="M876.79,457.29H820.7v1.9h56.09Z"/><path class="cls-39" d="M876.78,461.41H820.7v1.9h56.08Z"/><path class="cls-39" d="M876.77,465.53H820.7v1.91h56.07Z"/><path class="cls-39" d="M876.76,469.65H820.7v1.91h56.06Z"/><path class="cls-39" d="M876.76,473.78H820.7v1.9h56.06Z"/></g><g class="cls-61"><path class="cls-39" d="M877.14,401.89l-37.23-31-2.56,2.46,39.74,33.1C877.1,404.93,877.12,403.41,877.14,401.89Z"/><path class="cls-39" d="M877,411.77l-42.67-35.54-2.56,2.47L877,416.34Z"/><path class="cls-39" d="M877,421.66l-48.14-40.09L826.28,384l50.66,42.19Z"/><path class="cls-39" d="M876.9,431.56l-53.61-44.64-2.55,2.46,56.14,46.76C876.89,434.61,876.89,433.09,876.9,431.56Z"/><path class="cls-39" d="M876.85,441.48l-59.09-49.22-2.56,2.47,61.63,51.32C876.84,444.53,876.85,443,876.85,441.48Z"/></g><g class="cls-62"><path class="cls-39" d="M896.73,109h-152v5.52H895.9Q896.31,111.77,896.73,109Z"/><path class="cls-39" d="M895,121H744.72v5.51H894.16C894.42,124.63,894.69,122.8,895,121Z"/><path class="cls-39" d="M893.25,132.9H744.72v5.52H892.48Q892.86,135.66,893.25,132.9Z"/><path class="cls-39" d="M891.58,144.85H744.72v5.51H890.83Z"/><path class="cls-39" d="M889.94,156.79H744.72v5.52H889.18C889.43,160.47,889.69,158.63,889.94,156.79Z"/><path class="cls-39" d="M888.28,168.74H744.72v5.51H887.5C887.77,172.42,888,170.58,888.28,168.74Z"/><path class="cls-39" d="M886.07,184.21l.51-3.52H744.72v5.51H885.8Z"/><path class="cls-39" d="M884.92,192.63H744.72v5.51H884.24C884.46,196.31,884.68,194.47,884.92,192.63Z"/><path class="cls-39" d="M883.48,204.58H744.72v5.51H882.91C883.1,208.25,883.28,206.41,883.48,204.58Z"/><path class="cls-39" d="M882.29,216.52H744.72V222H881.8Q882,219.28,882.29,216.52Z"/><path class="cls-39" d="M881.31,228.47H744.72V234H880.93C881,232.14,881.18,230.31,881.31,228.47Z"/><path class="cls-39" d="M880.57,240.41H744.72v5.52H880.3C880.38,244.09,880.48,242.25,880.57,240.41Z"/></g><g class="cls-63"><polygon class="cls-4" points="245.19 565.05 119.06 580.18 118.58 576.96 244.71 561.83 245.19 565.05"/><polygon class="cls-4" points="246.23 572.02 120.1 587.16 119.62 583.94 245.75 568.8 246.23 572.02"/><polygon class="cls-4" points="247.27 579 121.14 594.13 120.66 590.91 246.79 575.78 247.27 579"/><polygon class="cls-4" points="248.31 585.97 122.18 601.11 121.7 597.89 247.83 582.75 248.31 585.97"/><polygon class="cls-4" points="249.35 592.95 123.22 608.08 122.74 604.86 248.87 589.73 249.35 592.95"/></g><g class="cls-64"><polygon class="cls-4" points="706.72 540.09 580.59 555.22 580.11 552 706.24 536.87 706.72 540.09"/><polygon class="cls-4" points="707.76 547.06 581.63 562.19 581.15 558.98 707.28 543.84 707.76 547.06"/><polygon class="cls-4" points="708.8 554.03 582.67 569.17 582.19 565.95 708.32 550.82 708.8 554.03"/><polygon class="cls-4" points="709.84 561.01 583.71 576.14 583.23 572.92 709.36 557.79 709.84 561.01"/><polygon class="cls-4" points="710.88 567.98 584.75 583.12 584.27 579.9 710.4 564.76 710.88 567.98"/><polygon class="cls-4" points="711.93 574.96 585.79 590.09 585.31 586.87 711.45 571.74 711.93 574.96"/><polygon class="cls-4" points="712.97 581.93 586.84 597.07 586.36 593.85 712.49 578.72 712.97 581.93"/><polygon class="cls-4" points="714.01 588.91 587.88 604.04 587.4 600.82 713.53 585.69 714.01 588.91"/><polygon class="cls-4" points="715.05 595.88 588.92 611.02 588.44 607.8 714.57 592.66 715.05 595.88"/></g><g class="cls-65"><polygon class="cls-12" points="579.9 598.16 533.43 540.56 535.26 539.38 581.73 596.98 579.9 598.16"/><polygon class="cls-12" points="575.94 600.73 529.47 543.13 531.3 541.94 577.77 599.55 575.94 600.73"/><polygon class="cls-12" points="571.98 603.3 525.51 545.7 527.34 544.52 573.81 602.12 571.98 603.3"/><polygon class="cls-12" points="568.01 605.87 521.54 548.27 523.37 547.09 569.84 604.69 568.01 605.87"/><polygon class="cls-12" points="564.05 608.44 517.58 550.84 519.41 549.65 565.88 607.26 564.05 608.44"/><polygon class="cls-12" points="560.09 611.01 513.62 553.41 515.45 552.23 561.92 609.83 560.09 611.01"/><polygon class="cls-12" points="556.13 613.58 509.65 555.98 511.48 554.79 557.95 612.4 556.13 613.58"/><polygon class="cls-12" points="552.16 616.15 505.69 558.55 507.52 557.36 553.99 614.97 552.16 616.15"/><polygon class="cls-12" points="548.2 618.72 501.73 561.12 503.56 559.93 550.03 617.53 548.2 618.72"/><polygon class="cls-12" points="544.23 621.29 497.76 563.69 499.59 562.5 546.06 620.11 544.23 621.29"/><polygon class="cls-12" points="540.27 623.86 493.8 566.26 495.63 565.07 542.1 622.67 540.27 623.86"/><polygon class="cls-12" points="536.31 626.43 489.84 568.83 491.67 567.64 538.14 625.24 536.31 626.43"/></g><g class="cls-66"><polygon class="cls-12" points="457.04 662.11 517.36 558.07 520.66 559.61 460.35 663.65 457.04 662.11"/><polygon class="cls-12" points="449.88 658.77 510.2 554.74 513.51 556.28 453.19 660.32 449.88 658.77"/><polygon class="cls-12" points="442.72 655.44 503.04 551.4 506.35 552.94 446.03 656.98 442.72 655.44"/><polygon class="cls-12" points="435.56 652.1 495.88 548.07 499.19 549.61 438.87 653.64 435.56 652.1"/><polygon class="cls-12" points="428.41 648.77 488.73 544.73 492.03 546.27 431.71 650.31 428.41 648.77"/><polygon class="cls-12" points="421.25 645.43 481.57 541.4 484.87 542.93 424.55 646.97 421.25 645.43"/><polygon class="cls-12" points="414.09 642.1 474.41 538.06 477.71 539.6 417.39 643.64 414.09 642.1"/><polygon class="cls-12" points="406.93 638.76 467.25 534.73 470.56 536.26 410.24 640.3 406.93 638.76"/><polygon class="cls-12" points="399.77 635.43 460.09 531.39 463.39 532.93 403.08 636.97 399.77 635.43"/><polygon class="cls-12" points="392.62 632.09 452.93 528.05 456.24 529.59 395.92 633.63 392.62 632.09"/><polygon class="cls-12" points="385.46 628.75 445.77 524.72 449.08 526.26 388.76 630.29 385.46 628.75"/><polygon class="cls-12" points="378.3 625.42 438.62 521.38 441.92 522.92 381.6 626.96 378.3 625.42"/></g><g class="cls-67"><polygon class="cls-12" points="-5.07 653.59 55.25 549.55 58.55 551.09 -1.77 655.13 -5.07 653.59"/><polygon class="cls-12" points="-12.23 650.25 48.09 546.21 51.39 547.75 -8.93 651.79 -12.23 650.25"/><polygon class="cls-12" points="-19.39 646.91 40.93 542.88 44.23 544.42 -16.09 648.45 -19.39 646.91"/><polygon class="cls-12" points="-26.55 643.58 33.77 539.54 37.08 541.08 -23.25 645.12 -26.55 643.58"/><polygon class="cls-12" points="-33.71 640.24 26.61 536.21 29.92 537.75 -30.4 641.78 -33.71 640.24"/><polygon class="cls-12" points="-40.87 636.91 19.45 532.87 22.76 534.41 -37.56 638.45 -40.87 636.91"/><polygon class="cls-12" points="-48.02 633.57 12.3 529.54 15.6 531.08 -44.72 635.11 -48.02 633.57"/><polygon class="cls-12" points="-55.18 630.24 5.14 526.2 8.44 527.74 -51.88 631.78 -55.18 630.24"/><polygon class="cls-12" points="-62.34 626.9 -2.02 522.87 1.28 524.4 -59.04 628.44 -62.34 626.9"/></g><g class="cls-68"><rect class="cls-24" x="490.88" y="585.35" width="161.07" height="4.11"/><rect class="cls-24" x="490.88" y="594.25" width="161.07" height="4.11"/></g><g class="cls-69"><polygon class="cls-34" points="69.32 694.18 2.29 565.36 6.38 563.65 73.41 692.47 69.32 694.18"/><polygon class="cls-34" points="60.46 697.89 -6.58 569.07 -2.48 567.36 64.55 696.18 60.46 697.89"/><polygon class="cls-34" points="51.59 701.6 -15.44 572.78 -11.35 571.07 55.69 699.89 51.59 701.6"/><polygon class="cls-34" points="42.73 705.3 -24.3 576.48 -20.21 574.77 46.82 703.59 42.73 705.3"/><polygon class="cls-34" points="33.87 709.01 -33.16 580.19 -29.07 578.48 37.96 707.3 33.87 709.01"/><polygon class="cls-34" points="25 712.72 -42.03 583.9 -37.94 582.19 29.09 711 25 712.72"/><polygon class="cls-34" points="16.14 716.42 -50.89 587.61 -46.8 585.89 20.23 714.71 16.14 716.42"/><polygon class="cls-34" points="7.28 720.13 -59.76 591.31 -55.66 589.6 11.37 718.42 7.28 720.13"/><polygon class="cls-34" points="-1.59 723.84 -68.62 595.02 -64.53 593.31 2.5 722.13 -1.59 723.84"/></g><g class="cls-70"><polygon class="cls-34" points="493.73 641.27 370.19 403.86 377.73 400.71 501.27 638.12 493.73 641.27"/><polygon class="cls-34" points="477.39 648.1 353.85 410.69 361.39 407.54 484.93 644.95 477.39 648.1"/><polygon class="cls-34" points="461.06 654.93 337.51 417.52 345.06 414.37 468.6 651.78 461.06 654.93"/><polygon class="cls-34" points="444.72 661.77 321.18 424.35 328.72 421.2 452.26 658.61 444.72 661.77"/><polygon class="cls-34" points="428.39 668.6 304.85 431.19 312.39 428.03 435.93 665.44 428.39 668.6"/><polygon class="cls-34" points="412.05 675.43 288.51 438.02 296.05 434.86 419.59 672.28 412.05 675.43"/><polygon class="cls-34" points="395.72 682.26 272.17 444.85 279.71 441.69 403.25 679.11 395.72 682.26"/><polygon class="cls-34" points="379.38 689.09 255.84 451.68 263.38 448.53 386.92 685.94 379.38 689.09"/><polygon class="cls-34" points="363.05 695.92 239.5 458.51 247.04 455.36 370.58 692.77 363.05 695.92"/><polygon class="cls-34" points="346.71 702.76 223.17 465.35 230.71 462.19 354.25 699.6 346.71 702.76"/><polygon class="cls-34" points="330.37 709.59 206.83 472.18 214.37 469.02 337.91 706.43 330.37 709.59"/><polygon class="cls-34" points="314.04 716.42 190.5 479.01 198.03 475.85 321.58 713.26 314.04 716.42"/></g><g class="cls-71"><polygon class="cls-39" points="175.74 612.12 81.53 541.21 83.78 538.8 177.99 609.72 175.74 612.12"/><polygon class="cls-39" points="170.86 617.33 76.65 546.42 78.9 544.01 173.11 614.93 170.86 617.33"/><polygon class="cls-39" points="165.98 622.54 71.77 551.63 74.02 549.22 168.23 620.14 165.98 622.54"/><polygon class="cls-39" points="161.1 627.75 66.89 556.84 69.14 554.43 163.35 625.35 161.1 627.75"/><polygon class="cls-39" points="156.22 632.96 62.01 562.04 64.26 559.64 158.47 630.56 156.22 632.96"/><polygon class="cls-39" points="151.34 638.17 57.13 567.25 59.38 564.85 153.59 635.76 151.34 638.17"/><polygon class="cls-39" points="146.46 643.38 52.25 572.46 54.5 570.06 148.71 640.98 146.46 643.38"/><polygon class="cls-39" points="141.58 648.59 47.37 577.67 49.62 575.27 143.83 646.18 141.58 648.59"/><polygon class="cls-39" points="136.7 653.8 42.49 582.88 44.75 580.48 138.96 651.39 136.7 653.8"/><polygon class="cls-39" points="131.82 659.01 37.61 588.09 39.87 585.69 134.07 656.6 131.82 659.01"/><polygon class="cls-39" points="126.94 664.22 32.73 593.3 34.99 590.9 129.2 661.81 126.94 664.22"/></g><g class="cls-72"><polygon class="cls-39" points="428.09 579.77 402.7 703.38 398.77 702.73 424.16 579.13 428.09 579.77"/><polygon class="cls-39" points="436.59 581.18 411.2 704.78 407.28 704.13 432.67 580.53 436.59 581.18"/><polygon class="cls-39" points="445.1 582.58 419.71 706.18 415.78 705.54 441.17 581.93 445.1 582.58"/><polygon class="cls-39" points="453.6 583.99 428.21 707.59 424.29 706.94 449.68 583.34 453.6 583.99"/><polygon class="cls-39" points="462.1 585.39 436.72 708.99 432.79 708.35 458.18 584.74 462.1 585.39"/><polygon class="cls-39" points="470.61 586.8 445.22 710.4 441.3 709.75 466.69 586.15 470.61 586.8"/><polygon class="cls-39" points="479.11 588.2 453.73 711.8 449.8 711.15 475.19 587.55 479.11 588.2"/><polygon class="cls-39" points="487.62 589.6 462.23 713.21 458.3 712.56 483.69 588.96 487.62 589.6"/><polygon class="cls-39" points="496.12 591.01 470.73 714.61 466.81 713.96 492.2 590.36 496.12 591.01"/><polygon class="cls-39" points="504.63 592.41 479.24 716.01 475.31 715.37 500.7 591.76 504.63 592.41"/><polygon class="cls-39" points="513.13 593.82 487.74 717.42 483.82 716.77 509.21 593.17 513.13 593.82"/><polygon class="cls-39" points="521.64 595.22 496.25 718.82 492.32 718.17 517.71 594.57 521.64 595.22"/></g><g class="cls-73"><path class="cls-12" d="M877.14,583.52l-40.63,70.07,3.31,1.54,37.37-64.46C877.17,588.28,877.16,585.9,877.14,583.52Z"/><path class="cls-12" d="M877,568l-47.68,82.24,3.3,1.54,44.42-76.62Q877.05,571.6,877,568Z"/><path class="cls-12" d="M876.94,552.49,822.2,646.91l3.3,1.54L877,559.66Q877,556.08,876.94,552.49Z"/><path class="cls-12" d="M876.88,540.25l-1.52-.71L815,643.58l3.3,1.54,58.56-101C876.9,542.83,876.89,541.54,876.88,540.25Z"/><polygon class="cls-12" points="807.88 640.24 868.2 536.21 871.5 537.75 811.18 641.78 807.88 640.24"/><polygon class="cls-12" points="800.72 636.91 861.04 532.87 864.35 534.41 804.02 638.45 800.72 636.91"/><polygon class="cls-12" points="793.56 633.57 853.88 529.54 857.19 531.08 796.87 635.11 793.56 633.57"/><polygon class="cls-12" points="786.4 630.24 846.73 526.2 850.03 527.74 789.71 631.78 786.4 630.24"/><polygon class="cls-12" points="779.25 626.9 839.57 522.87 842.87 524.4 782.55 628.44 779.25 626.9"/><polygon class="cls-12" points="772.09 623.57 832.41 519.53 835.71 521.07 775.39 625.11 772.09 623.57"/><polygon class="cls-12" points="764.93 620.23 825.25 516.19 828.55 517.73 768.23 621.77 764.93 620.23"/><polygon class="cls-12" points="757.77 616.89 818.09 512.86 821.39 514.4 761.08 618.43 757.77 616.89"/></g><g class="cls-74"><path class="cls-34" d="M877.62,641.37l-38.52-74L835,569.07l42.7,82C877.68,647.87,877.64,644.62,877.62,641.37Z"/><path class="cls-34" d="M877.81,662.49l-47.57-91.42-4.09,1.71,51.75,99.46Z"/><path class="cls-34" d="M878,683.61,821.38,574.77l-4.09,1.71,60.82,116.89C878.08,690.12,878,686.86,878,683.61Z"/><path class="cls-34" d="M878.21,704.74l-65.7-126.26-4.09,1.71,67,128.82,2.78-1.17Z"/><polygon class="cls-34" points="866.59 712.72 799.56 583.9 803.65 582.19 870.68 711 866.59 712.72"/><polygon class="cls-34" points="857.73 716.42 790.7 587.61 794.79 585.89 861.82 714.71 857.73 716.42"/><polygon class="cls-34" points="848.86 720.13 781.83 591.31 785.92 589.6 852.95 718.42 848.86 720.13"/><polygon class="cls-34" points="840 723.84 772.97 595.02 777.06 593.31 844.09 722.13 840 723.84"/></g></g></svg>